<svg width="206" height="68" viewBox="0 0 206 68" fill="none" xmlns="http://www.w3.org/2000/svg">
<g clip-path="url(#clip0_564_1614)">
<path d="M194.156 1.03954H203.901V40.6136H194.156V1.03954Z" fill="#566666"/>
<path d="M171.404 27.7449L163.945 12.9404L156.824 27.8166L171.404 27.7449ZM145.017 40.5061L166.007 0.681075H166.232L187.184 40.5061C183.361 40.3268 181.187 39.9325 177.364 40.1118C176.052 36.2045 174.515 33.8387 172.754 29.8239L155.849 30.2182L151.164 40.5061L149.402 40.3627L147.866 40.291C147.416 40.291 147.041 40.3627 146.704 40.3627L145.017 40.5061Z" fill="#566666"/>
<path d="M40.7427 19.5003C40.7427 14.7327 39.3934 10.8614 36.6947 7.88614C33.996 4.91091 30.3977 3.40538 25.9374 3.40538H25.7875C21.9643 3.44122 18.8533 4.33737 16.4545 6.09383C14.0557 7.85029 12.3315 10.1803 11.282 13.0121C10.2325 15.8798 9.74527 19.0343 9.85772 22.4755C9.8952 25.6299 10.6074 28.3542 11.9567 30.6842C13.306 33.0142 15.1052 34.7707 17.3166 35.9895C19.528 37.1724 21.9643 37.7818 24.6255 37.7818C30.5477 37.7818 34.7082 35.8102 37.107 31.8313C39.5058 27.8524 40.7052 23.7659 40.7052 19.5003H40.7427ZM0.112445 21.185C0.187409 17.8513 1.08697 14.661 2.81114 11.5424C4.5353 8.42383 7.23399 5.84291 10.9072 3.83553C14.6179 1.75646 19.3031 0.752768 25.0753 0.752768C30.4727 0.752768 35.0455 1.68477 38.7562 3.51292C42.5044 5.34106 45.2405 7.7786 47.0397 10.8614C48.8388 13.9441 49.7384 17.3137 49.7384 20.97C49.7384 27.243 47.3395 32.1181 42.5419 35.631C37.7442 39.1439 31.6346 41.0437 24.1383 41.3305C21.1023 41.4022 17.7664 40.9004 14.0182 39.825C10.3075 38.7496 7.04658 36.7781 4.23544 33.8745C1.46179 30.9352 0.0374818 26.9921 0 21.9736C0.0749636 21.7586 0.112445 21.4718 0.112445 21.185Z" fill="#566666"/>
<path fill-rule="evenodd" clip-rule="evenodd" d="M54.3112 1.36215H89.9189V4.15814H76.8752V40.1835H67.3923V4.15814H54.3112V1.36215Z" fill="#566666"/>
<path fill-rule="evenodd" clip-rule="evenodd" d="M107.91 2.18661C99.0644 10.9689 116.269 8.20875 121.741 7.09752C128.263 5.73537 131.711 2.79599 136.209 0C136.209 1.54138 129.2 6.8466 117.693 9.14075C114.769 9.71429 104.087 11.7217 103 7.63522C102.438 5.4486 106.711 2.65261 107.948 2.18661H107.91Z" fill="#FFCB05"/>
<path fill-rule="evenodd" clip-rule="evenodd" d="M111.471 34.9499C102.7 43.9114 119.867 41.0079 125.302 39.8608C132.311 38.3553 138.195 35.4518 142.318 32.5124C142.318 34.0538 132.723 39.6458 121.216 41.9399C118.293 42.5134 107.61 44.5208 106.523 40.4344C105.961 38.2478 110.234 35.4518 111.471 34.9858V34.9499Z" fill="#92278F"/>
<path fill-rule="evenodd" clip-rule="evenodd" d="M102.475 8.35213C98.6147 13.4064 100.901 15.1629 104.724 15.6289C116.344 17.0627 133.698 11.7575 142.056 4.55245C141.157 10.718 100.189 24.9847 97.0779 14.661C96.4032 12.5103 101.238 8.81813 102.475 8.31629V8.35213Z" fill="#0095DA"/>
<path fill-rule="evenodd" clip-rule="evenodd" d="M100.001 15.0912C94.6041 20.0738 94.9789 23.049 98.5771 24.4112C109.747 28.5693 139.282 20.0738 147.641 11.5066C144.267 21.1133 93.0298 35.8819 92.3551 23.5509C92.2427 21.2926 98.7271 15.593 99.964 15.0912H100.001Z" fill="#ED1C24"/>
<path fill-rule="evenodd" clip-rule="evenodd" d="M102.775 27.3147C98.9145 32.369 101.051 33.9462 104.837 34.5915C115.631 36.4555 136.359 30.2182 144.455 23.0849C143.668 29.5013 100.489 43.9473 97.3402 33.6236C96.6656 31.437 101.501 27.7807 102.738 27.2789L102.775 27.3147Z" fill="#00A651"/>
<path fill-rule="evenodd" clip-rule="evenodd" d="M108.098 6.95414C101.088 18.6041 103.037 34.4481 112.67 39.1081C100.751 37.6742 99.0644 14.9837 108.098 6.95414Z" fill="#202020"/>
<path fill-rule="evenodd" clip-rule="evenodd" d="M116.081 3.87138C108.322 19.4644 112.333 37.961 121.966 42.5851C110.047 41.1513 104.874 15.127 116.081 3.87138Z" fill="#202020"/>
<path fill-rule="evenodd" clip-rule="evenodd" d="M113.945 0C125.077 3.87138 128.075 30.4692 124.402 44.951C132.198 27.8524 127.176 1.36215 113.945 0Z" fill="#202020"/>
<path fill-rule="evenodd" clip-rule="evenodd" d="M122.116 1.50554C132.836 3.1903 138.833 24.8413 131.374 39.9684C142.993 21.4001 133.435 1.61307 122.116 1.50554Z" fill="#202020"/>
<path fill-rule="evenodd" clip-rule="evenodd" d="M131.299 1.82815C141.944 6.45229 142.843 26.2393 136.809 36.2404C146.067 24.7696 143.968 5.41276 131.299 1.82815Z" fill="#202020"/>
<path d="M3.56074 64.4512H5.5098V64.5588C5.5098 64.7739 5.58476 64.9531 5.69721 65.0248C5.80965 65.0965 6.07202 65.1323 6.44684 65.1323H8.92064C9.18301 65.1323 9.33294 65.0965 9.44539 65.0248C9.55783 64.9531 9.59531 64.8097 9.59531 64.6305C9.59531 64.4512 9.52035 64.3079 9.4079 64.2362C9.29546 64.1645 9.03309 64.0928 8.62079 64.0569L5.5098 63.9852C4.72268 63.9852 4.19793 63.806 3.93556 63.5551C3.67319 63.3042 3.52326 62.8382 3.52326 62.1212C3.52326 61.7628 3.52326 61.476 3.63571 61.2609C3.71067 61.0459 3.82311 60.8308 3.97304 60.6874C4.16045 60.5082 4.42282 60.4006 4.72268 60.3289C5.02253 60.2572 5.5098 60.2214 6.22195 60.2214H9.2205C9.97013 60.2214 10.4949 60.3648 10.8322 60.6157C11.1695 60.8666 11.3195 61.2968 11.3195 61.8703C11.3195 61.9062 11.3195 61.942 11.3195 61.9779C11.3195 62.0137 11.3195 62.0854 11.3195 62.1929H9.4079C9.4079 61.9779 9.37042 61.7986 9.25798 61.6911C9.14553 61.5835 8.9956 61.5477 8.77071 61.5477H6.48432C6.10951 61.5477 5.84713 61.5477 5.73469 61.6552C5.62224 61.7269 5.54728 61.8703 5.54728 62.0495C5.54728 62.2288 5.58476 62.3722 5.69721 62.4439C5.80965 62.5155 5.99706 62.5872 6.29691 62.5872H9.55783C10.3075 62.6589 10.8322 62.8023 11.1321 63.1249C11.4319 63.4117 11.5818 63.9494 11.5818 64.6663C11.5818 65.0965 11.5444 65.4191 11.4319 65.67C11.3195 65.9209 11.1321 66.1002 10.8697 66.2794C10.6823 66.3869 10.4574 66.4586 10.1575 66.4945C9.85769 66.5303 9.44539 66.5662 8.84568 66.5662H6.22195C5.13498 66.5662 4.42282 66.4586 4.04801 66.2077C3.67319 65.9926 3.48578 65.5625 3.48578 64.9172C3.48578 64.8814 3.48578 64.8097 3.48578 64.738C3.48578 64.6663 3.48578 64.5588 3.48578 64.4154L3.56074 64.4512ZM13.1936 63.2683H12.2565V62.1212H13.1936V61.0817H14.8428V62.1212H17.429V63.2683H14.8428V64.738C14.8428 64.9531 14.8802 65.1323 14.9927 65.204C15.1051 65.3115 15.2551 65.3474 15.48 65.3474C15.7423 65.3474 15.9297 65.3115 16.0422 65.204C16.1546 65.0965 16.1921 64.9531 16.1921 64.7022C16.1921 64.6663 16.1921 64.5946 16.1921 64.4871H17.6539C17.6539 64.4871 17.6539 64.5946 17.6539 64.6305C17.6539 64.6663 17.6539 64.7739 17.6539 64.8455C17.6539 65.4549 17.4665 65.8851 17.1292 66.136C16.7543 66.3869 16.1921 66.5303 15.3675 66.5303C14.5429 66.5303 14.0182 66.4228 13.7183 66.2077C13.4185 65.9926 13.231 65.5983 13.231 65.0248V63.2325L13.1936 63.2683ZM20.2776 62.9457C20.4276 62.6231 20.6524 62.408 20.9148 62.2646C21.1772 62.1212 21.5145 62.0495 21.9643 62.0495C22.6015 62.0495 23.0513 62.1929 23.3137 62.4439C23.576 62.6948 23.726 63.1249 23.726 63.7343C23.726 63.806 23.726 63.9494 23.726 64.1286H22.2642V64.0569C22.2642 63.806 22.1892 63.6268 22.0393 63.4834C21.8893 63.3759 21.6645 63.3042 21.3646 63.3042C21.0647 63.3042 20.8024 63.3759 20.615 63.5192C20.4276 63.6626 20.3526 63.8419 20.3526 64.1286V66.4586H18.7034V62.0854H20.3526V62.9099L20.2776 62.9457ZM28.4487 65.0606H29.9854V65.1323C29.9854 65.6342 29.8355 66.0285 29.4982 66.2435C29.1608 66.4586 28.6361 66.5662 27.8864 66.5662H26.3497C25.675 66.5662 25.1503 66.4228 24.7754 66.136C24.4006 65.8492 24.2132 65.4549 24.2132 64.9531V63.7702C24.2132 63.2325 24.4006 62.8023 24.7754 62.5156C25.1503 62.2288 25.675 62.0854 26.3497 62.0854H27.8864C28.5611 62.0854 29.0859 62.2288 29.4607 62.5156C29.8355 62.8023 29.9854 63.2325 29.9854 63.7702V64.7022H25.8624C25.8624 64.7022 25.8624 64.7022 25.8624 64.7739V64.8097C25.8624 65.0606 25.9374 65.2398 26.0873 65.3474C26.2372 65.4549 26.4996 65.5266 26.8369 65.5266H27.5116C27.849 65.5266 28.1113 65.5266 28.2238 65.4191C28.3362 65.3474 28.4112 65.2398 28.4487 65.0606ZM25.8624 63.7343H28.4112C28.4112 63.5192 28.3362 63.3759 28.2238 63.2683C28.0738 63.1966 27.849 63.1249 27.5116 63.1249H26.8369C26.4996 63.1249 26.2372 63.1608 26.1248 63.2683C25.9749 63.34 25.8999 63.5192 25.8999 63.6985L25.8624 63.7343ZM32.7591 66.5303H31.1099V62.1929H32.7591V62.874C32.9465 62.5872 33.1714 62.408 33.4712 62.3005C33.7711 62.1929 34.2209 62.1212 34.8206 62.1212C35.5702 62.1212 36.1324 62.2646 36.5072 62.5156C36.8821 62.7665 37.0695 63.1966 37.0695 63.6985V66.5303H35.4203V64.3437C35.4203 63.9494 35.3453 63.6985 35.1579 63.5909C34.9705 63.4834 34.6332 63.4117 34.1084 63.4117C33.6212 63.4117 33.2838 63.4834 33.0964 63.6626C32.909 63.806 32.7966 64.0928 32.7966 64.4512V66.5662L32.7591 66.5303ZM40.8177 65.0965H41.5298C41.9046 65.0965 42.167 65.0248 42.3169 64.9172C42.4669 64.8097 42.5418 64.6305 42.5418 64.3795V63.8777C42.5418 63.6268 42.4669 63.4475 42.3169 63.34C42.167 63.2325 41.9046 63.1966 41.5298 63.1966H40.8177C40.4428 63.1966 40.1805 63.2325 40.0305 63.34C39.8806 63.4475 39.8056 63.6268 39.8056 63.9135V64.4154C39.8056 64.6663 39.8806 64.8455 40.0305 64.9531C40.1805 65.0606 40.4428 65.1323 40.8177 65.1323V65.0965ZM42.5793 65.7775C42.5793 65.7775 42.3169 66.0285 42.0546 66.1002C41.7922 66.1719 41.3799 66.2077 40.8551 66.2077C39.8056 66.2077 39.0935 66.1002 38.7562 65.9209C38.3813 65.7058 38.2314 65.3474 38.2314 64.8097V63.6268C38.2314 63.0891 38.4188 62.7306 38.7936 62.4797C39.1685 62.2288 39.7682 62.1212 40.5928 62.1212C41.1925 62.1212 41.6423 62.1929 41.9421 62.3005C42.2794 62.408 42.5043 62.5872 42.6168 62.8382V62.1571H44.266V66.5303C44.266 66.9963 44.0786 67.3906 43.7038 67.6415C43.3289 67.8925 42.7667 68.0358 42.0546 68.0358H40.5178C39.5808 68.0358 38.981 67.9283 38.6812 67.7491C38.3813 67.5698 38.2314 67.2114 38.2314 66.7454V66.6737H39.8806C39.8806 66.6737 39.9556 66.8888 40.068 66.9246C40.1805 66.9605 40.4054 66.9963 40.7427 66.9963H41.6797C42.0171 66.9963 42.242 66.9246 42.3919 66.7812C42.5418 66.6378 42.6168 66.3869 42.6168 66.0643C42.6168 66.0285 42.6168 65.9568 42.6168 65.8492L42.5793 65.7775ZM45.9527 63.2683H45.0156V62.1212H45.9527V61.0817H47.6019V62.1212H50.1881V63.2683H47.6019V64.738C47.6019 64.9531 47.6393 65.1323 47.7518 65.204C47.8642 65.3115 48.0142 65.3474 48.2391 65.3474C48.5014 65.3474 48.6888 65.3115 48.8013 65.204C48.9137 65.0965 48.9512 64.9531 48.9512 64.7022C48.9512 64.6663 48.9512 64.5946 48.9512 64.4871H50.413C50.413 64.4871 50.413 64.5946 50.413 64.6305C50.413 64.6663 50.413 64.7739 50.413 64.8455C50.413 65.4549 50.2256 65.8851 49.8883 66.136C49.5134 66.3869 48.9512 66.5303 48.1266 66.5303C47.302 66.5303 46.7773 66.4228 46.4774 66.2077C46.1776 65.9926 45.9901 65.5983 45.9901 65.0248V63.2325L45.9527 63.2683ZM52.9618 66.5303H51.3126V60.3648H52.9618V62.874C53.1492 62.5872 53.3741 62.408 53.6739 62.3005C53.9738 62.1929 54.4236 62.1212 55.0233 62.1212C55.7729 62.1212 56.3351 62.2646 56.7099 62.5156C57.0848 62.7665 57.2722 63.1966 57.2722 63.6985V66.5303H55.623V64.3437C55.623 63.9494 55.548 63.6985 55.3606 63.5909C55.1732 63.4834 54.8358 63.4117 54.3111 63.4117C53.8613 63.4117 53.524 63.4834 53.2991 63.6626C53.0742 63.806 52.9992 64.0569 52.9992 64.4154V66.5662L52.9618 66.5303ZM62.5196 65.0606H64.0564V65.1323C64.0564 65.6342 63.9064 66.0285 63.5691 66.2435C63.2318 66.4586 62.707 66.5662 61.9574 66.5662H60.4206C59.746 66.5662 59.2212 66.4228 58.8464 66.136C58.4716 65.8492 58.2842 65.4549 58.2842 64.9531V63.7702C58.2842 63.2325 58.4716 62.8023 58.8464 62.5156C59.2212 62.2288 59.746 62.0854 60.4206 62.0854H61.9574C62.6321 62.0854 63.1568 62.2288 63.5316 62.5156C63.9065 62.8023 64.0564 63.2325 64.0564 63.7702V64.7022H59.9334C59.9334 64.7022 59.9334 64.7022 59.9334 64.7739V64.8097C59.9334 65.0606 60.0083 65.2398 60.1583 65.3474C60.3082 65.4549 60.5706 65.5266 60.9079 65.5266H61.5826C61.9199 65.5266 62.1823 65.5266 62.2947 65.4191C62.4072 65.3474 62.4821 65.2398 62.5196 65.0606ZM59.9709 63.7343H62.5196C62.5196 63.5192 62.4447 63.3759 62.3322 63.2683C62.1823 63.1966 61.9574 63.1249 61.6201 63.1249H60.9454C60.6081 63.1249 60.3457 63.1608 60.2332 63.2683C60.0833 63.34 60.0083 63.5192 60.0083 63.6985L59.9709 63.7343ZM66.8675 66.5303H65.2183V62.1929H66.8675V62.874C67.0549 62.5872 67.2798 62.408 67.5797 62.3005C67.8795 62.1929 68.3293 62.1212 68.929 62.1212C69.6786 62.1212 70.2409 62.2646 70.6157 62.5156C70.9905 62.7665 71.1779 63.1966 71.1779 63.6985V66.5303H69.5287V64.3437C69.5287 63.9494 69.4538 63.6985 69.2663 63.5909C69.0789 63.4834 68.7416 63.4117 68.2169 63.4117C67.7296 63.4117 67.3923 63.4834 67.2048 63.6626C67.0174 63.806 66.905 64.0928 66.905 64.4512V66.5662L66.8675 66.5303ZM74.064 61.6194H72.4148V60.3289H74.064V61.6194ZM74.064 66.5303H72.4148V62.1571H74.064V66.5303ZM77.0251 66.5303H75.3759V62.1929H77.0251V62.874C77.2125 62.5872 77.4374 62.408 77.7372 62.3005C78.0371 62.1929 78.4869 62.1212 79.0866 62.1212C79.8362 62.1212 80.3984 62.2646 80.7733 62.5156C81.1481 62.7665 81.3355 63.1966 81.3355 63.6985V66.5303H79.6863V64.3437C79.6863 63.9494 79.6113 63.6985 79.4239 63.5909C79.2365 63.4834 78.8992 63.4117 78.3744 63.4117C77.8872 63.4117 77.5498 63.4834 77.3624 63.6626C77.175 63.806 77.0626 64.0928 77.0626 64.4512V66.5662L77.0251 66.5303ZM85.1211 65.0965H85.8333C86.2081 65.0965 86.4705 65.0248 86.6204 64.9172C86.7704 64.8097 86.8453 64.6305 86.8453 64.3795V63.8777C86.8453 63.6268 86.7704 63.4475 86.6204 63.34C86.4705 63.2325 86.2081 63.1966 85.8333 63.1966H85.1211C84.7463 63.1966 84.484 63.2325 84.334 63.34C84.1841 63.4475 84.1091 63.6268 84.1091 63.9135V64.4154C84.1091 64.6663 84.1841 64.8455 84.334 64.9531C84.484 65.0606 84.7463 65.1323 85.1211 65.1323V65.0965ZM86.8453 65.7775C86.8453 65.7775 86.5829 66.0285 86.3206 66.1002C86.0582 66.1719 85.6459 66.2077 85.1211 66.2077C84.0717 66.2077 83.3595 66.1002 83.0222 65.9209C82.6474 65.7058 82.4974 65.3474 82.4974 64.8097V63.6268C82.4974 63.0891 82.6848 62.7306 83.0597 62.4797C83.4345 62.2288 84.0342 62.1212 84.8588 62.1212C85.4585 62.1212 85.9083 62.1929 86.2081 62.3005C86.5455 62.408 86.7704 62.5872 86.8828 62.8382V62.1571H88.532V66.5303C88.532 66.9963 88.3446 67.3906 87.9698 67.6415C87.5949 67.8925 87.0327 68.0358 86.3206 68.0358H84.7838C83.8468 68.0358 83.2471 67.9283 82.9472 67.7491C82.6473 67.5698 82.4974 67.2114 82.4974 66.7454V66.6737H84.1466C84.1466 66.6737 84.2216 66.8888 84.334 66.9246C84.4465 66.9605 84.6714 66.9963 85.0087 66.9963H85.9458C86.2831 66.9963 86.508 66.9246 86.6579 66.7812C86.8078 66.6378 86.8828 66.3869 86.8828 66.0643C86.8828 66.0285 86.8828 65.9568 86.8828 65.8492L86.8453 65.7775ZM94.5666 63.2683H93.6295V62.1212H94.5666V61.0817H96.2158V62.1212H98.802V63.2683H96.2158V64.738C96.2158 64.9531 96.2532 65.1323 96.3657 65.204C96.4781 65.3115 96.6281 65.3474 96.853 65.3474C97.1153 65.3474 97.3027 65.3115 97.4152 65.204C97.5276 65.0965 97.5651 64.9531 97.5651 64.7022C97.5651 64.6663 97.5651 64.5946 97.5651 64.4871H99.0269C99.0269 64.4871 99.0269 64.5946 99.0269 64.6305C99.0269 64.6663 99.0269 64.7739 99.0269 64.8455C99.0269 65.4549 98.8395 65.8851 98.5022 66.136C98.1273 66.3869 97.5651 66.5303 96.7405 66.5303C95.9159 66.5303 95.3912 66.4228 95.0913 66.2077C94.7915 65.9926 94.604 65.5983 94.604 65.0248V63.2325L94.5666 63.2683ZM101.576 66.5303H99.9265V60.3648H101.576V62.874C101.763 62.5872 101.988 62.408 102.288 62.3005C102.588 62.1929 103.037 62.1212 103.637 62.1212C104.387 62.1212 104.949 62.2646 105.324 62.5156C105.699 62.7665 105.886 63.1966 105.886 63.6985V66.5303H104.237V64.3437C104.237 63.9494 104.162 63.6985 103.975 63.5909C103.787 63.4834 103.45 63.4117 102.925 63.4117C102.475 63.4117 102.138 63.4834 101.913 63.6626C101.688 63.806 101.613 64.0569 101.613 64.4154V66.5662L101.576 66.5303ZM111.134 65.0606H112.67V65.1323C112.67 65.6342 112.52 66.0285 112.183 66.2435C111.846 66.4586 111.321 66.5662 110.571 66.5662H109.035C108.36 66.5662 107.835 66.4228 107.46 66.136C107.085 65.8492 106.898 65.4549 106.898 64.9531V63.7702C106.898 63.2325 107.085 62.8023 107.46 62.5156C107.835 62.2288 108.36 62.0854 109.035 62.0854H110.571C111.246 62.0854 111.771 62.2288 112.146 62.5156C112.52 62.8023 112.67 63.2325 112.67 63.7702V64.7022H108.547C108.547 64.7022 108.547 64.7022 108.547 64.7739V64.8097C108.547 65.0606 108.622 65.2398 108.772 65.3474C108.922 65.4549 109.184 65.5266 109.522 65.5266H110.196C110.534 65.5266 110.796 65.5266 110.909 65.4191C111.021 65.3474 111.096 65.2398 111.134 65.0606ZM108.585 63.7343H111.134C111.134 63.5192 111.059 63.3759 110.946 63.2683C110.796 63.1966 110.571 63.1249 110.234 63.1249H109.559C109.222 63.1249 108.96 63.1608 108.847 63.2683C108.697 63.34 108.622 63.5192 108.622 63.6985L108.585 63.7343ZM119.792 65.7417V68H118.143V62.1571H119.792V62.9457C119.792 62.6231 119.979 62.408 120.317 62.2646C120.616 62.1212 121.141 62.0854 121.853 62.0854C122.753 62.0854 123.353 62.1929 123.727 62.408C124.102 62.6231 124.252 63.0174 124.252 63.5551V64.9889C124.252 65.5266 124.065 65.9209 123.69 66.136C123.315 66.3869 122.715 66.4945 121.853 66.4945C121.141 66.4945 120.654 66.4228 120.354 66.3152C120.054 66.2077 119.867 65.9926 119.792 65.7058V65.7417ZM120.841 63.3042C120.466 63.3042 120.204 63.3759 120.017 63.4834C119.867 63.5909 119.792 63.7702 119.792 64.0569V64.5946C119.792 64.8814 119.867 65.0965 120.017 65.204C120.167 65.3115 120.429 65.3832 120.841 65.3832H121.591C121.966 65.3832 122.228 65.3115 122.378 65.204C122.528 65.0965 122.603 64.9172 122.603 64.6305V64.0928C122.603 63.8419 122.528 63.6268 122.378 63.5192C122.228 63.4117 121.966 63.34 121.591 63.34H120.841V63.3042ZM127.063 61.6194H125.414V60.3289H127.063V61.6194ZM127.063 66.5303H125.414V62.1571H127.063V66.5303ZM130.099 66.5303H128.45V60.3648H130.099V66.5303ZM133.098 66.5303H131.449V60.3648H133.098V66.5303ZM137.596 64.6305H136.584C136.284 64.6305 136.059 64.6305 135.946 64.738C135.834 64.8097 135.759 64.9172 135.759 65.0965C135.759 65.2399 135.797 65.3474 135.909 65.4191C136.021 65.4908 136.246 65.5266 136.546 65.5266H137.558C137.858 65.5266 138.083 65.5266 138.195 65.4191C138.308 65.3474 138.383 65.2398 138.383 65.0606C138.383 64.8814 138.345 64.8097 138.233 64.738C138.12 64.6663 137.896 64.6305 137.596 64.6305ZM140.069 66.5303H138.42V65.9926C138.27 66.2077 138.008 66.3511 137.633 66.4228C137.296 66.5303 136.846 66.5662 136.284 66.5662C135.459 66.5662 134.86 66.4586 134.56 66.2435C134.26 66.0285 134.072 65.6342 134.072 65.0965C134.072 64.5588 134.222 64.1645 134.56 63.9852C134.897 63.7702 135.497 63.6626 136.396 63.6626C136.921 63.6626 137.333 63.6626 137.633 63.7702C137.971 63.8419 138.195 63.9135 138.42 64.0569V63.5909C138.42 63.5909 138.383 63.3042 138.27 63.2325C138.158 63.1608 138.008 63.1249 137.783 63.1249H136.434C136.434 63.1249 136.134 63.1249 136.059 63.1966C135.984 63.2325 135.946 63.34 135.946 63.4475H134.297V63.3759C134.297 62.9099 134.485 62.5872 134.822 62.3722C135.197 62.1571 135.759 62.0854 136.621 62.0854H138.233C138.87 62.0854 139.32 62.1929 139.62 62.4439C139.92 62.6948 140.069 63.0532 140.069 63.5192V66.4945V66.5303ZM142.843 62.9457C142.993 62.6231 143.218 62.408 143.48 62.2646C143.743 62.1212 144.08 62.0495 144.53 62.0495C145.167 62.0495 145.617 62.1929 145.879 62.4439C146.142 62.6948 146.291 63.1249 146.291 63.7343C146.291 63.806 146.291 63.9494 146.291 64.1286H144.83V64.0569C144.83 63.806 144.755 63.6268 144.605 63.4834C144.455 63.3759 144.23 63.3042 143.93 63.3042C143.63 63.3042 143.368 63.3759 143.18 63.5192C142.993 63.6626 142.918 63.8419 142.918 64.1286V66.4586H141.269V62.0854H142.918V62.9099L142.843 62.9457ZM146.741 65.1323H148.503C148.503 65.2757 148.578 65.3832 148.728 65.4191C148.878 65.4908 149.103 65.5266 149.402 65.5266H150.602C150.827 65.5266 151.014 65.5266 151.127 65.4549C151.239 65.4191 151.277 65.3115 151.277 65.204C151.277 65.0965 151.239 65.0248 151.127 64.9531C151.014 64.8814 150.864 64.8455 150.602 64.8455H148.99C148.166 64.8455 147.603 64.7022 147.266 64.5229C146.966 64.3079 146.779 63.9852 146.779 63.5192C146.779 63.0174 146.966 62.6589 147.303 62.4439C147.641 62.2288 148.203 62.1212 149.028 62.1212H150.902C151.501 62.1212 151.951 62.2288 152.214 62.4439C152.513 62.6589 152.663 62.9815 152.663 63.4117H151.014C151.014 63.4117 150.902 63.2683 150.752 63.2325C150.602 63.1966 150.414 63.1608 150.19 63.1608H149.028C148.803 63.1608 148.653 63.1608 148.578 63.2325C148.503 63.2683 148.428 63.34 148.428 63.4475C148.428 63.5551 148.465 63.6268 148.578 63.6626C148.653 63.6985 148.878 63.7343 149.215 63.7702H151.239C151.839 63.7702 152.251 63.8777 152.513 64.1286C152.776 64.3437 152.926 64.7022 152.926 65.1682C152.926 65.7059 152.776 66.1002 152.476 66.3152C152.176 66.5303 151.651 66.6378 150.864 66.6378H149.178C148.241 66.6378 147.603 66.5303 147.266 66.3152C146.929 66.1002 146.779 65.7417 146.741 65.204V65.1323ZM160.797 65.3832H161.584C161.996 65.3832 162.259 65.3115 162.409 65.204C162.559 65.0965 162.634 64.8814 162.634 64.5946V64.0211C162.634 63.7343 162.559 63.5551 162.409 63.4117C162.259 63.3042 161.959 63.2325 161.584 63.2325H160.797C160.385 63.2325 160.122 63.3042 159.935 63.4117C159.785 63.5192 159.71 63.7343 159.71 64.0211V64.5946C159.71 64.8814 159.785 65.0606 159.972 65.1682C160.122 65.2757 160.422 65.3474 160.797 65.3474V65.3832ZM160.347 66.5662C159.523 66.5662 158.923 66.4586 158.585 66.2077C158.248 65.9568 158.061 65.5625 158.061 64.9889V63.806C158.061 63.1966 158.248 62.7306 158.585 62.4797C158.923 62.2288 159.523 62.0854 160.347 62.0854H161.996C162.821 62.0854 163.383 62.2288 163.721 62.4797C164.058 62.7306 164.245 63.1608 164.245 63.7343V64.9531C164.245 65.5266 164.058 65.9568 163.721 66.2077C163.383 66.4586 162.783 66.5662 161.959 66.5662H160.31H160.347ZM167.356 66.5303H165.707V63.34H164.92V62.1571H165.707V62.0137C165.707 61.4043 165.857 60.9742 166.157 60.7232C166.457 60.4723 166.981 60.3648 167.731 60.3648H168.781V61.4402H168.743C168.743 61.4402 168.443 61.4402 168.368 61.4402C167.993 61.4402 167.769 61.476 167.619 61.5836C167.469 61.6911 167.394 61.8345 167.394 62.0495C167.394 62.0854 167.394 62.1212 167.394 62.1212C167.394 62.1212 167.394 62.1571 167.394 62.1929H168.893V63.3759H167.394V66.5662L167.356 66.5303ZM178.076 66.5303H176.089V61.8703H173.391V60.3648H180.775V61.8703H178.076V66.5303ZM182.874 62.9457C183.024 62.6231 183.249 62.408 183.511 62.2646C183.773 62.1212 184.111 62.0495 184.56 62.0495C185.198 62.0495 185.647 62.1929 185.91 62.4439C186.172 62.6948 186.322 63.1249 186.322 63.7343C186.322 63.806 186.322 63.9494 186.322 64.1286H184.86V64.0569C184.86 63.806 184.785 63.6268 184.635 63.4834C184.485 63.3759 184.261 63.3042 183.961 63.3042C183.661 63.3042 183.398 63.3759 183.211 63.5192C183.024 63.6626 182.949 63.8419 182.949 64.1286V66.4586H181.299V62.0854H182.949V62.9099L182.874 62.9457ZM191.232 62.1571H192.881V66.5303H191.232V65.8492C191.045 66.136 190.82 66.3152 190.52 66.4228C190.22 66.5303 189.77 66.602 189.171 66.602C188.421 66.602 187.821 66.4586 187.484 66.2077C187.109 65.9568 186.922 65.5266 186.922 64.9889V62.1929H188.571V64.4154C188.571 64.8097 188.646 65.0248 188.833 65.1682C189.021 65.2757 189.321 65.3474 189.808 65.3474C190.333 65.3474 190.707 65.2757 190.895 65.1323C191.082 64.9889 191.195 64.7022 191.195 64.3437V62.1929L191.232 62.1571ZM193.931 65.1323H195.692C195.692 65.2757 195.767 65.3832 195.917 65.4191C196.067 65.4908 196.292 65.5266 196.592 65.5266H197.791C198.016 65.5266 198.204 65.5266 198.316 65.4549C198.429 65.4191 198.466 65.3115 198.466 65.204C198.466 65.0965 198.429 65.0248 198.316 64.9531C198.204 64.8814 198.054 64.8455 197.791 64.8455H196.18C195.355 64.8455 194.793 64.7022 194.456 64.5229C194.156 64.3079 193.968 63.9852 193.968 63.5192C193.968 63.0174 194.156 62.6589 194.493 62.4439C194.83 62.2288 195.393 62.1212 196.217 62.1212H198.091C198.691 62.1212 199.141 62.2288 199.403 62.4439C199.703 62.6589 199.853 62.9815 199.853 63.4117H198.204C198.204 63.4117 198.091 63.2683 197.941 63.2325C197.791 63.1966 197.604 63.1608 197.379 63.1608H196.217C195.992 63.1608 195.842 63.1608 195.767 63.2325C195.692 63.2683 195.618 63.34 195.618 63.4475C195.618 63.5551 195.655 63.6268 195.767 63.6626C195.842 63.6985 196.067 63.7343 196.405 63.7702H198.429C199.028 63.7702 199.441 63.8777 199.703 64.1286C199.965 64.3437 200.115 64.7022 200.115 65.1682C200.115 65.7059 199.965 66.1002 199.666 66.3152C199.366 66.5303 198.841 66.6378 198.054 66.6378H196.367C195.43 66.6378 194.793 66.5303 194.456 66.3152C194.118 66.1002 193.968 65.7417 193.931 65.204V65.1323ZM201.54 63.2683H200.603V62.1212H201.54V61.0817H203.189V62.1212H205.775V63.2683H203.189V64.738C203.189 64.9531 203.226 65.1323 203.339 65.204C203.451 65.3115 203.601 65.3474 203.826 65.3474C204.088 65.3474 204.276 65.3115 204.388 65.204C204.501 65.0965 204.538 64.9531 204.538 64.7022C204.538 64.6663 204.538 64.5946 204.538 64.4871H206C206 64.4871 206 64.5946 206 64.6305C206 64.6663 206 64.7739 206 64.8455C206 65.4549 205.813 65.8851 205.475 66.136C205.1 66.3869 204.538 66.5303 203.714 66.5303C202.889 66.5303 202.364 66.4228 202.064 66.2077C201.765 65.9926 201.577 65.5983 201.577 65.0248V63.2325L201.54 63.2683Z" fill="#58585A"/>
<path d="M2.81116 51.69C2.81116 51.3316 2.88612 50.9373 3.03605 50.543C3.14849 50.2562 3.29842 50.0053 3.48583 49.7902C3.67324 49.5751 3.93561 49.36 4.23547 49.1808C4.53532 49.0016 4.83517 48.894 5.17251 48.7865C5.47237 48.7148 5.84718 48.679 6.222 48.679C6.89667 48.679 7.4589 48.7865 7.94616 49.0374C8.43343 49.2884 8.80825 49.5751 9.1081 50.0053C9.48292 50.543 9.63285 51.0807 9.63285 51.6542C9.63285 52.5145 9.33299 53.2314 8.73328 53.8766C8.13357 54.486 7.27149 54.8086 6.18452 54.8086C5.92215 54.8086 5.65977 54.8086 5.43488 54.7728C5.24747 54.7728 5.09755 54.7011 4.9851 54.6653C4.76021 54.5936 4.61028 54.5577 4.5728 54.5219C4.23547 54.3426 3.93561 54.1276 3.7482 53.9483C3.52331 53.7691 3.37338 53.5182 3.22346 53.2673C3.14849 53.1239 3.07353 52.873 2.96108 52.5145C2.88612 52.2994 2.84864 52.0127 2.84864 51.69H2.81116ZM6.03459 49.145C5.77222 49.145 5.50985 49.2167 5.28496 49.3242C5.06007 49.4317 4.91014 49.5751 4.79769 49.7185C4.61028 49.9694 4.49784 50.2562 4.42287 50.543C4.34791 50.8297 4.31043 51.1882 4.31043 51.6183C4.31043 51.8693 4.31043 52.0485 4.31043 52.1919C4.31043 52.1919 4.31043 52.2994 4.31043 52.3711C4.31043 52.5862 4.38539 52.7654 4.42287 52.873C4.5728 53.2673 4.64777 53.4823 4.72273 53.5899C4.83517 53.7333 4.94762 53.9125 5.13503 54.0559C5.24747 54.1276 5.35992 54.1993 5.54733 54.271C5.73474 54.3426 5.92215 54.3785 6.07207 54.3785C6.40941 54.3785 6.74675 54.3068 7.00912 54.1634C7.30897 54.02 7.53386 53.7333 7.72127 53.3748C7.90868 53.0163 7.98365 52.5145 7.98365 51.941C7.98365 51.69 7.98365 51.3674 7.94616 50.9373V50.8656C7.94616 50.8656 7.90868 50.7939 7.8712 50.6863C7.75876 50.1845 7.53386 49.826 7.19653 49.5393C6.85919 49.2883 6.44689 49.145 5.95963 49.145H6.03459ZM10.3075 51.0448H10.3825H11.9192V51.3674V51.7976V52.0127V52.6937V53.1597C11.9192 53.4823 11.9192 53.6974 11.9567 53.8766C11.9942 54.02 12.0692 54.1276 12.1816 54.1634C12.2941 54.2351 12.4065 54.271 12.5564 54.271C12.7064 54.271 12.8188 54.271 12.8938 54.2351C12.9687 54.2351 13.0812 54.1634 13.1936 54.0917C13.3061 54.02 13.381 53.9483 13.4185 53.9125C13.4935 53.805 13.5684 53.7333 13.6059 53.6616V52.5145C13.6059 52.5145 13.6434 52.2994 13.6434 52.2277C13.6434 52.156 13.6434 52.0485 13.6434 51.941C13.6434 51.8334 13.6434 51.7617 13.6434 51.7259V51.5467V51.4391C13.5684 51.4033 13.456 51.3674 13.3435 51.3674H13.0062C13.0062 51.3674 13.0062 51.3316 12.9687 51.2957C12.9687 51.224 12.9687 51.1882 12.9687 51.1523C12.9687 51.1165 12.9687 51.0807 12.9687 51.009C13.0812 51.009 13.1561 51.009 13.2311 51.009H13.9807C14.1681 51.009 14.4305 51.009 14.6929 51.009V51.3674V51.7976V52.3353V53.1239V53.4823V53.7333C14.6929 53.8766 14.6929 53.9842 14.6929 53.9842C14.6929 54.0559 14.6929 54.1276 14.7304 54.1634C14.7304 54.1993 14.8053 54.2351 14.8053 54.2351H15.2551H15.3301C15.3301 54.3426 15.3301 54.4143 15.3301 54.4143C15.3301 54.4143 15.3301 54.486 15.3301 54.5219C15.1802 54.5219 15.0302 54.5219 14.9553 54.5219C14.6179 54.5936 14.2431 54.7011 13.8308 54.8445H13.6434V54.0917C13.6059 54.0917 13.531 54.1634 13.4935 54.2351C13.2311 54.486 12.9687 54.6294 12.7813 54.7011C12.5939 54.7728 12.369 54.8445 12.1441 54.8445C11.8818 54.8445 11.6569 54.8086 11.4695 54.7011C11.282 54.5936 11.1321 54.486 11.0572 54.3068C10.9822 54.1993 10.9447 54.02 10.9072 53.805C10.9072 53.7333 10.9072 53.4465 10.9072 52.9088V52.7654C10.9072 52.4787 10.9072 52.2636 10.9072 52.1202C10.9072 51.8693 10.9072 51.7259 10.9072 51.6183C10.9072 51.5825 10.9072 51.5467 10.8697 51.475C10.8323 51.475 10.7573 51.475 10.7198 51.4391C10.5324 51.4391 10.3825 51.3674 10.345 51.3316C10.345 51.3316 10.345 51.3316 10.345 51.2599C10.345 51.2599 10.345 51.224 10.345 51.1882C10.345 51.1882 10.345 51.1165 10.345 51.0448H10.3075ZM15.7424 51.2599C16.1172 51.1165 16.3796 50.9731 16.567 50.8297C16.7169 50.6863 16.9043 50.4354 17.0917 50.1128H17.3541C17.3541 50.1128 17.3916 50.2562 17.3916 50.3637C17.3916 50.5071 17.3916 50.6505 17.3916 50.7222V50.9731C17.3916 50.9731 17.3916 51.009 17.3916 51.0807H17.504C17.504 51.0807 17.654 51.0807 17.9538 51.0807C17.9538 51.0807 18.1037 51.0807 18.3286 51.0807C18.3286 51.1523 18.3286 51.224 18.3286 51.2957C18.3286 51.3674 18.3286 51.4391 18.3286 51.5467C18.2162 51.5467 18.1412 51.5467 18.1037 51.5467C18.1037 51.5467 18.0288 51.5467 17.9538 51.5467H17.6165H17.3916V53.2673C17.3916 53.5899 17.3916 53.805 17.3916 53.9125C17.3916 53.9842 17.4291 54.0917 17.504 54.1634C17.579 54.1634 17.654 54.1993 17.7289 54.1993C17.8039 54.1993 17.8788 54.1993 17.9163 54.1993C17.9538 54.1993 18.0288 54.1276 18.1412 54.0559C18.1412 54.0559 18.1787 54.02 18.2162 53.9842C18.2911 54.0559 18.3661 54.0917 18.4036 54.1634V54.2351C18.4036 54.2351 18.1412 54.5219 17.9538 54.6294C17.7664 54.737 17.5415 54.7728 17.3166 54.7728C17.0168 54.7728 16.7919 54.7011 16.6045 54.5219C16.4171 54.3426 16.3421 54.0559 16.3421 53.6974V52.9088V51.6183H16.1922H15.8548H15.7799C15.7799 51.6183 15.7799 51.5467 15.7799 51.5108C15.7799 51.5108 15.7799 51.4391 15.7799 51.2957L15.7424 51.2599ZM18.7034 49.2525L19.1157 49.1091C19.1157 49.1091 19.4906 48.9299 19.9029 48.7148H20.1278C20.1278 48.7148 20.2402 48.7148 20.2777 48.7148C20.2777 48.7865 20.2777 48.8582 20.2777 48.894V49.0733V50.7939V51.4391C20.2777 51.4391 20.5026 51.224 20.6525 51.1165C20.6525 51.1165 20.7649 51.0448 20.9149 50.9731C21.0648 50.9014 21.1772 50.8656 21.2522 50.8656C21.4021 50.8656 21.5521 50.8297 21.6645 50.8297C21.9644 50.8297 22.2267 50.8656 22.4141 50.9373C22.6015 51.009 22.789 51.1165 22.9764 51.2957C23.1638 51.475 23.3137 51.69 23.4261 51.9768C23.5011 52.156 23.5386 52.3711 23.5386 52.6579C23.5386 52.8371 23.5386 53.0163 23.4261 53.2314C23.3512 53.4465 23.2762 53.6616 23.1263 53.8766C23.0138 54.02 22.9014 54.1634 22.714 54.3068C22.5266 54.4502 22.3017 54.5577 22.0768 54.6653C21.9269 54.737 21.6645 54.737 21.2522 54.737C20.9149 54.737 20.5026 54.6294 20.0528 54.3785C19.9403 54.3068 19.8654 54.271 19.7904 54.2351C19.7155 54.3068 19.6405 54.4143 19.5655 54.5577C19.4906 54.6653 19.4531 54.7728 19.4156 54.8086H19.1907C19.1907 54.8086 19.1907 54.6653 19.1907 54.5936C19.1907 54.5219 19.1907 54.4502 19.1907 54.3785V54.0559V53.9483C19.1907 53.9125 19.1907 53.805 19.1907 53.6974V50.3637C19.1907 50.0411 19.1907 49.826 19.1907 49.7185C19.1907 49.7185 19.1907 49.6827 19.1907 49.6468C19.1907 49.6468 19.0033 49.5751 18.7034 49.4676V49.2525ZM20.2777 51.7259V52.4428C20.2777 53.2314 20.2777 53.6974 20.3152 53.8408C20.3526 53.9842 20.4651 54.1276 20.615 54.2351C20.8024 54.3426 20.9524 54.4143 21.1398 54.4143C21.2897 54.4143 21.4021 54.4143 21.5521 54.3426C21.702 54.271 21.8144 54.2351 21.8519 54.1634C21.9644 54.0559 22.0393 53.9483 22.1143 53.8408C22.1893 53.6616 22.2642 53.5182 22.2642 53.3748C22.2642 53.1597 22.3017 53.0163 22.3017 52.9088C22.3017 52.6579 22.2642 52.407 22.1518 52.156C22.0393 51.9051 21.8894 51.7259 21.702 51.6183C21.5146 51.5108 21.2897 51.4391 21.0648 51.4391C20.9149 51.4391 20.7649 51.475 20.5775 51.5467C20.3901 51.6183 20.2777 51.69 20.2027 51.7617L20.2777 51.7259ZM27.9989 51.4033C28.1863 51.5825 28.3363 51.7976 28.4487 52.0485C28.5612 52.2994 28.5986 52.5145 28.5986 52.7296C28.5986 53.1239 28.5237 53.4465 28.4112 53.6974C28.2238 54.0559 27.9614 54.3426 27.6241 54.5219C27.2868 54.7011 26.912 54.7728 26.4622 54.7728C25.9749 54.7728 25.5626 54.6653 25.1878 54.4502C24.8505 54.2351 24.5881 53.9842 24.4382 53.7333C24.2882 53.4465 24.2133 53.1239 24.2133 52.7296C24.2133 52.5145 24.2133 52.3353 24.3257 52.1202C24.4007 51.9051 24.4756 51.7259 24.6256 51.5825C24.738 51.4391 24.8879 51.2957 25.0379 51.1882C25.2628 51.0448 25.4502 50.9373 25.6751 50.8656C25.8999 50.7939 26.1623 50.758 26.4622 50.758C27.1368 50.758 27.6241 50.9373 27.9989 51.3316V51.4033ZM25.3752 52.9805C25.3752 53.3748 25.4127 53.5899 25.4502 53.6257C25.4876 53.8408 25.5626 54.02 25.6376 54.1634C25.7125 54.271 25.7875 54.3426 25.9374 54.4143C26.0874 54.486 26.2373 54.5219 26.4247 54.5219C26.6496 54.5219 26.837 54.4502 27.0244 54.3068C27.1743 54.1634 27.2868 53.9483 27.3617 53.6616C27.3992 53.4823 27.4367 53.1597 27.4367 52.6937C27.4367 52.156 27.3243 51.7617 27.1368 51.5108C26.9494 51.2957 26.6871 51.1523 26.3872 51.1523C26.1248 51.1523 25.9374 51.224 25.7875 51.3316C25.6376 51.475 25.5251 51.6542 25.4502 51.9051C25.4127 52.0843 25.3752 52.407 25.3752 52.9447V52.9805ZM29.1609 51.0448H29.2358H30.7726V51.3674V51.7976V52.0127V52.6937V53.1597C30.7726 53.4823 30.7726 53.6974 30.8101 53.8766C30.8475 54.02 30.9225 54.1276 31.035 54.1634C31.1474 54.2351 31.2598 54.271 31.4098 54.271C31.5597 54.271 31.6721 54.271 31.7471 54.2351C31.8221 54.2351 31.9345 54.1634 32.047 54.0917C32.1594 54.02 32.2344 53.9483 32.2719 53.9125C32.3468 53.805 32.4218 53.7333 32.4593 53.6616V52.5145C32.4593 52.5145 32.4967 52.2994 32.4967 52.2277C32.4967 52.156 32.4967 52.0485 32.4967 51.941C32.4967 51.8334 32.4967 51.7617 32.4967 51.7259V51.5467V51.4391C32.4218 51.4033 32.3093 51.3674 32.1969 51.3674H31.8596C31.8596 51.3674 31.8596 51.3316 31.8221 51.2957C31.8221 51.224 31.8221 51.1882 31.8221 51.1523C31.8221 51.1165 31.8221 51.0807 31.8221 51.009C31.9345 51.009 32.0095 51.009 32.0844 51.009H32.8341C33.0215 51.009 33.2839 51.009 33.5462 51.009V51.3674V51.7976V52.3353V53.1239V53.4823V53.7333C33.5462 53.8766 33.5462 53.9842 33.5462 53.9842C33.5462 54.0559 33.5462 54.1276 33.5837 54.1634C33.5837 54.1993 33.6587 54.2351 33.6587 54.2351H34.1085H34.1834C34.1834 54.3426 34.1834 54.4143 34.1834 54.4143C34.1834 54.4143 34.1834 54.486 34.1834 54.5219C34.0335 54.5219 33.8836 54.5219 33.8086 54.5219C33.4713 54.5936 33.0965 54.7011 32.6842 54.8445H32.4967V54.0917C32.4593 54.0917 32.3843 54.1634 32.3468 54.2351C32.0844 54.486 31.8221 54.6294 31.6347 54.7011C31.4473 54.7728 31.2224 54.8445 30.9975 54.8445C30.7351 54.8445 30.5102 54.8086 30.3228 54.7011C30.1354 54.5936 29.9855 54.486 29.9105 54.3068C29.8355 54.1993 29.7981 54.02 29.7606 53.805C29.7606 53.7333 29.7606 53.4465 29.7606 52.9088V52.7654C29.7606 52.4787 29.7606 52.2636 29.7606 52.1202C29.7606 51.8693 29.7606 51.7259 29.7606 51.6183C29.7606 51.5825 29.7606 51.5467 29.7231 51.475C29.6856 51.475 29.6106 51.475 29.5732 51.4391C29.3858 51.4391 29.2358 51.3674 29.1983 51.3316C29.1983 51.3316 29.1983 51.3316 29.1983 51.2599C29.1983 51.2599 29.1983 51.224 29.1983 51.1882C29.1983 51.1882 29.1983 51.1165 29.1983 51.0448H29.1609ZM34.5208 54.486C34.5208 54.486 34.6707 54.4143 34.7457 54.4143C34.9331 54.4143 35.008 54.3785 35.0455 54.3426C35.083 54.3426 35.1205 54.271 35.158 54.2351C35.158 54.1634 35.158 54.0559 35.158 53.8408V53.1239V52.6579V52.3711C35.158 52.1919 35.158 52.0127 35.1205 51.9051C35.1205 51.8693 35.083 51.7976 35.008 51.7617C34.9331 51.69 34.7831 51.6542 34.5582 51.5825V51.3674C34.5582 51.3674 34.6332 51.3674 34.6707 51.3674C34.6707 51.3674 34.8206 51.3674 35.0455 51.2957C35.2329 51.224 35.3454 51.1882 35.3828 51.1523C35.3828 51.1523 35.4203 51.1523 35.4578 51.1165C35.4953 51.1165 35.5328 51.0448 35.5703 51.009C35.6827 50.9373 35.7951 50.8297 35.9076 50.6863H36.17V51.1882C36.17 51.224 36.17 51.2957 36.17 51.2957C36.17 51.2957 36.17 51.4033 36.17 51.5108C36.4323 51.2957 36.6572 51.1523 36.8821 51.0448C37.182 50.9373 37.4443 50.8656 37.6692 50.8656C37.9691 50.8656 38.2315 50.9373 38.4564 51.0807C38.6812 51.224 38.8312 51.3674 38.9061 51.5825C38.9811 51.7617 39.0186 52.156 39.0186 52.6937V54.1634C39.0186 54.1634 39.0186 54.3068 39.0186 54.3426C39.0186 54.3426 39.131 54.3785 39.281 54.4143H39.5058C39.5058 54.4143 39.5433 54.5577 39.5433 54.5936C39.5433 54.6294 39.5433 54.6653 39.5433 54.737L38.6063 54.6653H38.3439H38.119H37.4818L37.3319 54.7011C37.3319 54.6653 37.3319 54.6294 37.3319 54.6294C37.3319 54.5577 37.3319 54.5219 37.3319 54.4502C37.3694 54.4502 37.4818 54.4502 37.6692 54.4143C37.7067 54.4143 37.7817 54.4143 37.8192 54.4143C37.8941 54.4143 37.9316 54.3785 37.9316 54.3426C37.9316 54.3068 37.9691 54.1993 37.9691 54.0559C37.9691 53.805 37.9691 53.5899 37.9691 53.4823V52.9447C37.9691 52.2994 37.9691 51.9051 37.8566 51.7617C37.7442 51.5467 37.5568 51.4033 37.3319 51.4033C37.1445 51.4033 36.9571 51.4391 36.7697 51.5467C36.5823 51.6183 36.3949 51.7617 36.17 51.941V52.0127V52.2994V52.5862V53.3031V53.4106C36.17 53.9125 36.17 54.1993 36.2074 54.2351C36.2449 54.3068 36.3949 54.3785 36.6947 54.4502C36.6947 54.486 36.6947 54.5219 36.6947 54.5577C36.6947 54.5577 36.6947 54.6653 36.6947 54.737C36.5823 54.737 36.5073 54.737 36.4323 54.737C36.3574 54.737 36.2449 54.737 36.1325 54.737H35.6077C35.3454 54.737 34.9705 54.737 34.5208 54.737C34.5208 54.737 34.5208 54.6653 34.5208 54.6294C34.5208 54.6294 34.5208 54.5577 34.5208 54.486ZM40.9302 51.224C40.9302 51.224 41.23 51.0448 41.3799 51.009C41.5299 50.9731 41.7173 50.9373 41.9796 50.9014H42.242C42.5794 50.9014 42.9167 51.009 43.2165 51.2599V51.1523V50.8656V50.3637C43.2165 49.8619 43.2165 49.5393 43.1041 49.3959C43.0666 49.3242 42.9542 49.2525 42.8417 49.2525C42.7293 49.2525 42.6168 49.2525 42.5419 49.1808V48.9657C42.5419 48.9657 42.6918 48.9657 42.7668 48.9657C42.8792 48.9657 43.0291 48.9657 43.329 48.8582H43.4789L43.9662 48.7148C44.0411 48.7148 44.1161 48.7148 44.1536 48.7148C44.1536 48.7148 44.1911 48.7148 44.2285 48.7148C44.2285 48.7865 44.2285 48.8224 44.2285 48.8582V48.9299V49.0016C44.2285 49.0733 44.2285 49.3242 44.2285 49.6827V50.077V50.292V50.758V51.0448C44.2285 51.1523 44.2285 51.3674 44.2285 51.6183C44.2285 51.6542 44.2285 51.69 44.2285 51.7259V51.9051C44.2285 51.9051 44.2285 51.9768 44.2285 52.0127C44.2285 52.0485 44.2285 52.1202 44.2285 52.1919V52.5503C44.2285 52.5503 44.2285 52.7654 44.2285 52.9088C44.2285 53.0522 44.2285 53.1956 44.2285 53.339C44.2285 53.3748 44.2285 53.4465 44.2285 53.4823V53.8408C44.2285 53.8408 44.2285 54.0917 44.2285 54.2351C44.3035 54.2351 44.416 54.3068 44.6409 54.3068C44.7158 54.3068 44.7908 54.3068 44.8283 54.3068C44.8283 54.3426 44.8283 54.3785 44.8283 54.4143C44.8283 54.4143 44.8283 54.486 44.8283 54.5219C44.7158 54.5219 44.5659 54.5577 44.416 54.5936C43.9662 54.6294 43.6663 54.7011 43.4789 54.8086C43.404 54.8445 43.329 54.8803 43.2915 54.8803C43.2915 54.8803 43.2165 54.8803 43.1791 54.8803C43.1791 54.8086 43.1791 54.7728 43.1791 54.7728C43.1791 54.5577 43.1791 54.4502 43.1791 54.3785C43.1416 54.3785 43.0666 54.4502 42.9917 54.486C42.7668 54.5936 42.5793 54.7011 42.4294 54.737C42.242 54.7728 42.0546 54.8086 41.8297 54.8086C41.4174 54.8086 41.1176 54.737 40.8927 54.5936C40.5553 54.3785 40.293 54.1276 40.1805 53.8408C40.0306 53.554 39.9931 53.2314 39.9931 52.873C39.9931 52.2636 40.293 51.7259 40.8927 51.2957L40.9302 51.224ZM42.3919 54.2351C42.3919 54.2351 42.5044 54.2351 42.5793 54.2351C42.6918 54.2351 42.8042 54.2351 42.9167 54.1634C43.0291 54.1276 43.1791 54.0559 43.2915 53.9842C43.2915 53.8766 43.2915 53.805 43.2915 53.805C43.2915 52.8371 43.2915 52.2636 43.254 52.0843C43.2165 51.8334 43.1041 51.6183 42.9542 51.475C42.7668 51.3316 42.5793 51.2599 42.317 51.2599C42.167 51.2599 42.0546 51.2599 41.9047 51.3316C41.7922 51.3674 41.6798 51.4391 41.6048 51.5467C41.4924 51.69 41.4174 51.8334 41.3424 52.0127C41.2675 52.2636 41.23 52.4786 41.23 52.6579C41.23 53.1597 41.3425 53.5182 41.5673 53.805C41.7922 54.0559 42.0546 54.2351 42.4294 54.271L42.3919 54.2351ZM48.0142 48.5714H48.3141L48.3515 48.6431C48.4265 48.7865 48.5015 48.894 48.539 48.9299C48.5764 48.9299 48.8013 48.9299 49.1761 48.9299C49.401 48.9299 49.6259 48.9299 49.8133 48.9299H49.9258H50.488H51.575H53.0368H53.2991C53.2991 48.9299 53.3741 48.7865 53.4491 48.679C53.4491 48.679 53.4491 48.6073 53.4866 48.5714H53.7114C53.7114 48.5714 53.7864 48.5714 53.8614 48.5714C53.8614 48.7865 53.8614 49.1091 53.8614 49.5034V49.8977V50.1128C53.8614 50.1845 53.8614 50.2562 53.8614 50.3279C53.7489 50.3637 53.599 50.3996 53.524 50.3996C53.4491 50.292 53.3366 50.1128 53.2617 49.8977C53.1492 49.6827 53.1117 49.5393 53.0743 49.5393C53.0743 49.5034 52.9993 49.4676 52.9243 49.4676C52.8494 49.4676 52.512 49.4676 51.9123 49.4676C51.8374 49.4676 51.7249 49.4676 51.575 49.4676C51.575 49.5751 51.575 49.6827 51.575 49.7544V50.3637V51.69V53.1239V53.6974C51.575 53.9125 51.575 54.0559 51.6499 54.1634C51.6874 54.1634 51.7999 54.1993 51.9123 54.2351C51.9123 54.2351 52.0622 54.2351 52.2497 54.3068C52.3621 54.3068 52.4371 54.3426 52.512 54.3785C52.512 54.486 52.512 54.5577 52.512 54.5936C52.512 54.5936 52.512 54.6653 52.512 54.7011C52.4371 54.7011 52.3996 54.7011 52.3246 54.7011C51.9873 54.7011 51.7249 54.7011 51.5 54.7011C51.2751 54.7011 50.8628 54.7011 50.2631 54.7011C50.1507 54.7011 49.8883 54.7011 49.4385 54.7728C49.2511 54.7728 49.1387 54.7728 49.1012 54.7728C49.1012 54.737 49.1012 54.7011 49.1012 54.6653V54.5577V54.5219C49.1762 54.4502 49.2886 54.3785 49.5135 54.3426C49.8508 54.271 50.0757 54.1993 50.1882 54.1276C50.1882 54.0559 50.2256 53.9842 50.2631 53.9125C50.2631 53.554 50.2631 52.9805 50.2631 52.1919V50.4713C50.2631 50.0053 50.2631 49.7185 50.2256 49.611C50.2256 49.611 50.2256 49.5751 50.2256 49.5393C50.2256 49.5393 50.2256 49.5393 50.1507 49.5393C50.0382 49.5393 49.7384 49.5393 49.1761 49.5393C48.8763 49.5393 48.6889 49.5393 48.5764 49.611C48.4265 49.6827 48.2391 49.8977 47.9767 50.2203C47.9018 50.3279 47.8268 50.3637 47.7893 50.3637C47.6394 50.292 47.5644 50.2203 47.527 50.1845C47.6394 50.0053 47.7518 49.611 47.9392 49.0016C47.9767 48.8224 48.0142 48.7148 48.0517 48.6431L48.0142 48.5714ZM57.3847 51.4033C57.5721 51.5825 57.722 51.7976 57.8344 52.0485C57.9469 52.2994 57.9844 52.5145 57.9844 52.7296C57.9844 53.1239 57.9094 53.4465 57.797 53.6974C57.6096 54.0559 57.3472 54.3426 57.0098 54.5219C56.6725 54.7011 56.2977 54.7728 55.8479 54.7728C55.3606 54.7728 54.9483 54.6653 54.5735 54.4502C54.2362 54.2351 53.9738 53.9842 53.8239 53.7333C53.674 53.4465 53.599 53.1239 53.599 52.7296C53.599 52.5145 53.599 52.3353 53.7114 52.1202C53.7864 51.9051 53.8614 51.7259 54.0113 51.5825C54.1237 51.4391 54.2737 51.2957 54.4236 51.1882C54.6485 51.0448 54.8359 50.9373 55.0608 50.8656C55.2857 50.7939 55.5481 50.758 55.8479 50.758C56.5226 50.758 57.0098 50.9373 57.3847 51.3316V51.4033ZM54.7984 52.9805C54.7984 53.3748 54.8359 53.5899 54.8734 53.6257C54.9109 53.8408 54.9858 54.02 55.0608 54.1634C55.1358 54.271 55.2107 54.3426 55.3606 54.4143C55.5106 54.486 55.6605 54.5219 55.8479 54.5219C56.0728 54.5219 56.2602 54.4502 56.4476 54.3068C56.5975 54.1634 56.71 53.9483 56.785 53.6616C56.8224 53.4823 56.8599 53.1597 56.8599 52.6937C56.8599 52.156 56.7475 51.7617 56.5601 51.5108C56.3727 51.2957 56.1103 51.1523 55.8104 51.1523C55.5481 51.1523 55.3606 51.224 55.2107 51.3316C55.0608 51.475 54.9483 51.6542 54.8734 51.9051C54.8359 52.0843 54.7984 52.407 54.7984 52.9447V52.9805ZM58.5841 51.0448H58.659H60.1958V51.3674V51.7976V52.0127V52.6937V53.1597C60.1958 53.4823 60.1958 53.6974 60.2333 53.8766C60.2708 54.02 60.3457 54.1276 60.4582 54.1634C60.5706 54.2351 60.6831 54.271 60.833 54.271C60.9829 54.271 61.0954 54.271 61.1703 54.2351C61.2453 54.2351 61.3577 54.1634 61.4702 54.0917C61.5826 54.02 61.6576 53.9483 61.6951 53.9125C61.77 53.805 61.845 53.7333 61.8825 53.6616V52.5145C61.8825 52.5145 61.92 52.2994 61.92 52.2277C61.92 52.156 61.92 52.0485 61.92 51.941C61.92 51.8334 61.92 51.7617 61.92 51.7259V51.5467V51.4391C61.845 51.4033 61.7326 51.3674 61.6201 51.3674H61.2828C61.2828 51.3674 61.2828 51.3316 61.2453 51.2957C61.2453 51.224 61.2453 51.1882 61.2453 51.1523C61.2453 51.1165 61.2453 51.0807 61.2453 51.009C61.3577 51.009 61.4327 51.009 61.5077 51.009H62.2573C62.4447 51.009 62.7071 51.009 62.9694 51.009V51.3674V51.7976V52.3353V53.1239V53.4823V53.7333C62.9694 53.8766 62.9694 53.9842 62.9694 53.9842C62.9694 54.0559 62.9695 54.1276 63.0069 54.1634C63.0069 54.1993 63.0819 54.2351 63.0819 54.2351H63.5317H63.6066C63.6066 54.3426 63.6066 54.4143 63.6066 54.4143C63.6066 54.4143 63.6066 54.486 63.6066 54.5219C63.4567 54.5219 63.3068 54.5219 63.2318 54.5219C62.8945 54.5936 62.5197 54.7011 62.1074 54.8445H61.92V54.0917C61.8825 54.0917 61.8075 54.1634 61.77 54.2351C61.5077 54.486 61.2453 54.6294 61.0579 54.7011C60.8705 54.7728 60.6456 54.8445 60.4207 54.8445C60.1583 54.8445 59.9334 54.8086 59.746 54.7011C59.5586 54.5936 59.4087 54.486 59.3337 54.3068C59.2588 54.1993 59.2213 54.02 59.1838 53.805C59.1838 53.7333 59.1838 53.4465 59.1838 52.9088V52.7654C59.1838 52.4787 59.1838 52.2636 59.1838 52.1202C59.1838 51.8693 59.1838 51.7259 59.1838 51.6183C59.1838 51.5825 59.1838 51.5467 59.1463 51.475C59.1088 51.475 59.0339 51.475 58.9964 51.4391C58.809 51.4391 58.659 51.3674 58.6216 51.3316C58.6216 51.3316 58.6216 51.3316 58.6216 51.2599C58.6216 51.2599 58.6216 51.224 58.6216 51.1882C58.6216 51.1882 58.6216 51.1165 58.6216 51.0448H58.5841ZM63.9065 54.486C63.9065 54.486 64.0189 54.4143 64.0564 54.4143C64.2064 54.4143 64.3563 54.3068 64.5062 54.2351C64.5062 54.1634 64.5437 53.9125 64.5437 53.4823C64.5437 52.7296 64.5437 52.1919 64.5062 51.941C64.5062 51.9051 64.5062 51.8334 64.4312 51.7976C64.3563 51.7617 64.2438 51.7259 64.0939 51.69C64.0189 51.69 63.9815 51.6542 63.9815 51.5825V51.4033C64.2064 51.4033 64.4312 51.2957 64.6187 51.1882C64.8061 51.0807 64.956 50.9373 65.031 50.8297C65.0684 50.758 65.1434 50.7222 65.1809 50.6863H65.5182C65.5182 50.6863 65.5182 50.7939 65.5182 50.8297C65.5182 50.8297 65.5182 50.9014 65.5182 50.9373C65.5182 51.0448 65.5182 51.1165 65.5182 51.1882C65.5182 51.1882 65.5182 51.3316 65.5182 51.5825C65.6307 51.3674 65.7431 51.224 65.8181 51.1523C65.8181 51.1523 65.9305 51.0448 66.0804 50.9373C66.1929 50.8656 66.3053 50.8297 66.4553 50.8297C66.6052 50.8297 66.7551 50.9014 66.905 51.009C67.0175 51.1165 67.0925 51.2599 67.0925 51.4033C67.0925 51.5467 67.055 51.69 66.9425 51.7976C66.8301 51.9051 66.7176 51.9768 66.5677 51.9768C66.4178 51.9768 66.3053 51.9051 66.1554 51.7976C66.0804 51.7259 66.0055 51.69 65.9305 51.69C65.9305 51.69 65.8181 51.7617 65.7431 51.8693C65.6681 52.0127 65.5932 52.1919 65.5932 52.3353V52.4428C65.5932 52.6579 65.5932 53.1956 65.5932 54.02C65.5932 54.0917 65.6307 54.1634 65.6681 54.2351C65.7431 54.271 65.7806 54.3068 65.8555 54.3426C65.9305 54.3426 66.0055 54.3426 66.1554 54.3785C66.3053 54.3785 66.3803 54.3785 66.4178 54.4502C66.4178 54.4502 66.4553 54.5219 66.4553 54.5577C66.4553 54.5577 66.4553 54.6294 66.4553 54.7011H65.1059C64.881 54.6653 64.6561 54.6653 64.4687 54.7011H64.3938C64.3938 54.7011 64.2063 54.7011 63.9065 54.7011C63.9065 54.6653 63.9065 54.6294 63.9065 54.5936C63.9065 54.5936 63.9065 54.5219 63.9065 54.486ZM69.9411 51.69C69.9411 51.3316 70.016 50.9373 70.166 50.543C70.2784 50.2562 70.4283 50.0053 70.6157 49.7902C70.8031 49.5751 71.0655 49.36 71.3654 49.1808C71.6652 49.0016 71.9651 48.894 72.3024 48.7865C72.6023 48.7148 72.9771 48.679 73.3519 48.679C74.0266 48.679 74.5888 48.7865 75.0761 49.0374C75.5633 49.2884 75.9382 49.5751 76.238 50.0053C76.6128 50.543 76.7628 51.0807 76.7628 51.6542C76.7628 52.5145 76.4629 53.2314 75.8632 53.8766C75.2635 54.486 74.4014 54.8086 73.3144 54.8086C73.0521 54.8086 72.7897 54.8086 72.5648 54.7728C72.3774 54.7728 72.2275 54.7011 72.115 54.6653C71.8901 54.5936 71.7402 54.5577 71.7027 54.5219C71.3654 54.3426 71.0655 54.1276 70.8781 53.9483C70.6532 53.7691 70.5033 53.5182 70.3534 53.2673C70.2784 53.1239 70.2034 52.873 70.091 52.5145C70.016 52.2994 69.9786 52.0127 69.9786 51.69H69.9411ZM73.1645 49.145C72.9021 49.145 72.6398 49.2167 72.4149 49.3242C72.19 49.4317 72.0401 49.5751 71.9276 49.7185C71.7402 49.9694 71.6277 50.2562 71.5528 50.543C71.4778 50.8297 71.4403 51.1882 71.4403 51.6183C71.4403 51.8693 71.4403 52.0485 71.4403 52.1919C71.4403 52.1919 71.4403 52.2994 71.4403 52.3711C71.4403 52.5862 71.5153 52.7654 71.5528 52.873C71.7027 53.2673 71.7777 53.4823 71.8526 53.5899C71.9651 53.7333 72.0775 53.9125 72.2649 54.0559C72.3774 54.1276 72.4898 54.1993 72.6772 54.271C72.8646 54.3426 73.0521 54.3785 73.202 54.3785C73.5393 54.3785 73.8767 54.3068 74.139 54.1634C74.4389 54.02 74.6638 53.7333 74.8512 53.3748C75.0386 53.0163 75.1136 52.5145 75.1136 51.941C75.1136 51.69 75.1136 51.3674 75.0761 50.9373V50.8656C75.0761 50.8656 75.0386 50.7939 75.0011 50.6863C74.8887 50.1845 74.6638 49.826 74.3264 49.5393C73.9891 49.2883 73.5768 49.145 73.0895 49.145H73.1645Z" fill="#202020"/>
<path d="M77.2125 57.0311V56.816L77.325 56.7443L77.6998 56.6009C77.6998 56.6009 77.9247 56.4934 77.9622 56.4576C77.9996 56.35 78.0371 56.2066 78.0371 55.9916V54.1993L77.9622 51.941C77.9622 51.7617 77.9247 51.6542 77.8497 51.5825C77.7748 51.5108 77.6248 51.4391 77.3625 51.3674V51.1165C77.6623 51.0448 77.9247 50.9731 78.1496 50.9014C78.2995 50.8297 78.5244 50.7222 78.7868 50.543H79.0117V50.6505V51.1523C79.0117 51.1523 79.0117 51.224 79.0117 51.2957C79.274 51.1523 79.4989 51.0448 79.6863 50.9731C79.9487 50.9014 80.2486 50.8656 80.5484 50.8656C80.8483 50.8656 81.1481 50.9373 81.4105 51.1165C81.4105 51.1165 81.448 51.1165 81.4855 51.1523C81.6354 51.2599 81.7478 51.3674 81.8228 51.475C81.9727 51.69 82.0852 51.9051 82.1601 52.1202C82.1976 52.2636 82.2351 52.4786 82.2351 52.6937C82.2351 53.0163 82.1976 53.2673 82.1226 53.4823C82.0477 53.6974 81.8978 53.9125 81.6729 54.1276C81.448 54.3426 81.2231 54.5219 80.9982 54.5936C80.7733 54.7011 80.5109 54.737 80.2486 54.737C79.9862 54.737 79.7988 54.737 79.6863 54.7011C79.4614 54.6294 79.274 54.5577 79.0491 54.4502C79.0491 54.486 79.0491 54.5219 79.0491 54.5577V54.6653C79.0491 54.6653 79.0491 54.737 79.0491 54.7728C79.0491 54.7728 79.0491 54.9162 79.0491 55.1313V55.9557C79.0491 55.9557 79.0491 56.0274 79.0491 56.1349C79.0491 56.1349 79.0491 56.3859 79.0491 56.4217C79.0491 56.4217 79.0866 56.4934 79.1241 56.5293C79.1241 56.5293 79.1991 56.5293 79.1991 56.5651C79.3115 56.5651 79.3865 56.6009 79.4614 56.6368C79.5364 56.6368 79.6114 56.6368 79.6863 56.6726C79.6863 56.6726 79.7238 56.7443 79.7238 56.816C79.7238 56.816 79.7238 56.8877 79.7238 56.9594H79.6488C79.6488 56.9594 79.349 56.9594 79.274 56.9594L78.5619 56.8877H78.2245H78.0746H77.8122C77.8122 56.8877 77.6248 56.8877 77.5124 56.9236C77.3999 56.9236 77.325 56.9236 77.25 56.9236H77.175L77.2125 57.0311ZM79.0117 53.7691V53.8408C79.0117 53.9842 79.0866 54.0917 79.1616 54.1276C79.274 54.2351 79.3865 54.3068 79.4989 54.3426C79.6863 54.3785 79.8737 54.4143 79.9862 54.4143C80.1361 54.4143 80.3235 54.4143 80.4734 54.3068C80.6234 54.2351 80.7733 54.1634 80.8483 54.0559C80.8483 54.0559 80.8483 54.0559 80.9232 53.9842C80.9232 53.9483 80.9607 53.9125 80.9607 53.8766C81.0732 53.6257 81.1481 53.3748 81.1481 53.1239C81.1481 52.622 80.9982 52.2277 80.6983 51.8693C80.4734 51.6183 80.1736 51.5108 79.7988 51.5108C79.5739 51.5108 79.3115 51.5825 79.0117 51.69C79.0117 51.7976 79.0117 52.156 79.0117 52.6937V53.554C79.0117 53.554 79.0117 53.6257 79.0117 53.7333V53.7691ZM82.9847 52.2994C83.0597 52.0485 83.1347 51.8693 83.2096 51.7976C83.397 51.5467 83.5844 51.3674 83.7718 51.224C83.9593 51.0807 84.1467 51.009 84.2966 50.9373C84.5215 50.8656 84.6714 50.8656 84.8213 50.8656C85.1212 50.8656 85.3461 50.8656 85.5335 50.9373C85.7209 50.9731 85.8708 51.0448 85.9833 51.1165C86.1707 51.224 86.3206 51.3674 86.3956 51.475C86.508 51.5825 86.583 51.7259 86.6579 51.9051C86.7329 52.0843 86.7704 52.2636 86.7704 52.5145H86.2456C86.2456 52.5145 85.7959 52.5145 85.2711 52.4787C85.0837 52.4787 84.9713 52.4787 84.8963 52.4787C84.8963 52.4787 84.7089 52.4787 84.3716 52.4787H83.9593C83.9593 52.4787 83.9593 52.5503 83.9593 52.5862C83.9593 52.7654 83.9593 52.9088 84.0342 53.088C84.0717 53.2673 84.1467 53.4106 84.2216 53.554C84.2966 53.6974 84.409 53.805 84.5215 53.9125C84.6339 54.02 84.7839 54.0917 84.8963 54.1276L85.1587 54.1993C85.3836 54.1993 85.571 54.1993 85.6459 54.1993C85.7959 54.1993 85.9458 54.1276 86.0582 54.0917C86.1707 54.0559 86.3206 53.9483 86.4705 53.8408C86.583 53.9125 86.6954 53.9842 86.7704 54.0559C86.508 54.3426 86.2082 54.5577 85.9083 54.7011C85.6085 54.8445 85.2711 54.9162 84.8963 54.9162C84.6339 54.9162 84.4465 54.9162 84.2966 54.8445C84.0717 54.7728 83.8843 54.7011 83.7344 54.5936C83.547 54.486 83.397 54.3426 83.2846 54.1634C83.1721 53.9842 83.0597 53.8408 83.0222 53.6616C82.9472 53.4465 82.9098 53.2314 82.9098 53.1239C82.9098 52.873 82.9098 52.622 82.9847 52.407V52.2994ZM85.7584 52.1202C85.7584 52.1202 85.7209 51.7976 85.6459 51.6183C85.571 51.475 85.4585 51.3316 85.3461 51.2599C85.1962 51.1882 85.0837 51.1165 84.9338 51.1165C84.7089 51.1165 84.5215 51.1882 84.3716 51.3674C84.1841 51.5467 84.1092 51.7976 84.0717 52.0843H85.1587C85.1587 52.0843 85.3086 52.0843 85.4585 52.0843C85.5335 52.0843 85.6085 52.0843 85.6459 52.0843C85.6459 52.0843 85.7209 52.0843 85.7584 52.0843V52.1202ZM87.3326 54.486C87.3326 54.486 87.4451 54.4143 87.4825 54.4143C87.6325 54.4143 87.7824 54.3068 87.9323 54.2351C87.9323 54.1634 87.9698 53.9125 87.9698 53.4823C87.9698 52.7296 87.9698 52.1919 87.9323 51.941C87.9323 51.9051 87.9323 51.8334 87.8574 51.7976C87.7824 51.7617 87.67 51.7259 87.52 51.69C87.4451 51.69 87.4076 51.6542 87.4076 51.5825V51.4033C87.6325 51.4033 87.8574 51.2957 88.0448 51.1882C88.2322 51.0807 88.3821 50.9373 88.4571 50.8297C88.4946 50.758 88.5695 50.7222 88.607 50.6863H88.9443C88.9443 50.6863 88.9443 50.7939 88.9443 50.8297C88.9443 50.8297 88.9443 50.9014 88.9443 50.9373C88.9443 51.0448 88.9443 51.1165 88.9443 51.1882C88.9443 51.1882 88.9443 51.3316 88.9443 51.5825C89.0568 51.3674 89.1692 51.224 89.2442 51.1523C89.2442 51.1523 89.3566 51.0448 89.5066 50.9373C89.619 50.8656 89.7315 50.8297 89.8814 50.8297C90.0313 50.8297 90.1812 50.9014 90.3312 51.009C90.4436 51.1165 90.5186 51.2599 90.5186 51.4033C90.5186 51.5467 90.4811 51.69 90.3686 51.7976C90.2562 51.9051 90.1438 51.9768 89.9938 51.9768C89.8439 51.9768 89.7315 51.9051 89.5815 51.7976C89.5066 51.7259 89.4316 51.69 89.3566 51.69C89.3566 51.69 89.2442 51.7617 89.1692 51.8693C89.0943 52.0127 89.0193 52.1919 89.0193 52.3353V52.4428C89.0193 52.6579 89.0193 53.1956 89.0193 54.02C89.0193 54.0917 89.0568 54.1634 89.0943 54.2351C89.1692 54.271 89.2067 54.3068 89.2817 54.3426C89.3566 54.3426 89.4316 54.3426 89.5815 54.3785C89.7315 54.3785 89.8064 54.3785 89.8439 54.4502C89.8439 54.4502 89.8814 54.5219 89.8814 54.5577C89.8814 54.5577 89.8814 54.6294 89.8814 54.7011H88.532C88.3071 54.6653 88.0823 54.6653 87.8948 54.7011H87.8199C87.8199 54.7011 87.6325 54.7011 87.3326 54.7011C87.3326 54.6653 87.3326 54.6294 87.3326 54.5936C87.3326 54.5936 87.3326 54.5219 87.3326 54.486ZM94.9039 53.8408L95.0164 53.9125C95.0164 53.9125 95.0539 53.9483 95.0539 53.9842C94.9789 54.271 94.8665 54.4502 94.754 54.5577C94.6416 54.6653 94.4916 54.7011 94.3042 54.7011C94.1168 54.7011 93.9669 54.6653 93.817 54.5577C93.667 54.4502 93.5546 54.271 93.4422 54.02C93.2922 54.2351 93.1048 54.4143 92.8799 54.5577C92.6176 54.6653 92.3177 54.737 91.9804 54.737C91.643 54.737 91.4181 54.6653 91.2682 54.5219C91.1183 54.3785 91.0433 54.1993 91.0433 54.02C91.0433 53.9125 91.0433 53.805 91.1183 53.6974C91.1558 53.5899 91.2307 53.4823 91.3432 53.3748C91.4556 53.2673 91.6055 53.1597 91.8304 53.0522C91.8304 53.0522 91.9804 52.9805 92.2053 52.9088L93.4047 52.4428C93.4047 52.4428 93.4047 52.2277 93.4047 52.0843C93.4047 51.69 93.3672 51.4033 93.2547 51.2599C93.1798 51.1882 93.0673 51.1165 92.9174 51.1165C92.7675 51.1165 92.6176 51.1165 92.4676 51.1882C92.3177 51.2599 92.2427 51.3316 92.1678 51.4033C92.1303 51.475 92.0928 51.5825 92.0553 51.7976C92.0553 51.941 92.0178 52.0127 91.9804 52.0127C91.9429 52.0843 91.8304 52.1202 91.718 52.156C91.6055 52.1919 91.4931 52.2277 91.4556 52.2636C91.2682 52.3353 91.1558 52.3711 91.0433 52.3711C91.0058 52.3711 90.9684 52.2994 90.9684 52.2277C90.9684 52.0485 90.9684 51.9051 91.0808 51.7976C91.1932 51.6183 91.3807 51.4391 91.6055 51.2957C91.8304 51.1165 92.0553 51.009 92.2427 50.9373C92.5051 50.8656 92.8424 50.7939 93.2547 50.7939C93.5171 50.7939 93.742 50.8297 93.8919 50.9373C94.0793 51.0448 94.1918 51.1523 94.2668 51.3316C94.3417 51.5108 94.3792 51.8334 94.3792 52.2636V53.0163V53.554V53.6974C94.3792 53.6974 94.3792 53.9125 94.4167 53.9483C94.4542 53.9842 94.4916 54.02 94.5666 54.02H94.6416L94.7915 53.805H94.8665L94.9039 53.8408ZM93.3297 52.8013C93.3297 52.8013 92.9549 52.9447 92.73 53.088C92.5051 53.2314 92.3552 53.3748 92.2427 53.4823C92.1678 53.5899 92.1303 53.6974 92.1303 53.8408C92.1303 53.9842 92.1678 54.0917 92.2427 54.1634C92.3177 54.2351 92.4301 54.3068 92.5426 54.3068C92.73 54.3068 92.8799 54.271 92.9924 54.1634C93.1423 54.02 93.2547 53.9125 93.2922 53.8408C93.2922 53.7691 93.3297 53.554 93.3297 53.1956C93.3297 53.0522 93.3297 52.9446 93.3297 52.8013ZM95.4287 51.2599C95.8035 51.1165 96.0659 50.9731 96.2533 50.8297C96.4032 50.6863 96.5906 50.4354 96.778 50.1128H97.0404C97.0404 50.1128 97.0779 50.2562 97.0779 50.3637C97.0779 50.5071 97.0779 50.6505 97.0779 50.7222V50.9731C97.0779 50.9731 97.0779 51.009 97.0779 51.0807H97.1903C97.1903 51.0807 97.3403 51.0807 97.6401 51.0807C97.6401 51.0807 97.79 51.0807 98.0149 51.0807C98.0149 51.1523 98.0149 51.224 98.0149 51.2957C98.0149 51.3674 98.0149 51.4391 98.0149 51.5467C97.9025 51.5467 97.8275 51.5467 97.79 51.5467C97.79 51.5467 97.7151 51.5467 97.6401 51.5467H97.3028H97.0779V53.2673C97.0779 53.5899 97.0779 53.805 97.0779 53.9125C97.0779 53.9842 97.1154 54.0917 97.1903 54.1634C97.2653 54.1634 97.3403 54.1993 97.4152 54.1993C97.4902 54.1993 97.5652 54.1993 97.6026 54.1993C97.6401 54.1993 97.7151 54.1276 97.8275 54.0559C97.8275 54.0559 97.865 54.02 97.9025 53.9842C97.9775 54.0559 98.0524 54.0917 98.0899 54.1634V54.2351C98.0899 54.2351 97.8275 54.5219 97.6401 54.6294C97.4527 54.737 97.2278 54.7728 97.0029 54.7728C96.7031 54.7728 96.4782 54.7011 96.2908 54.5219C96.1034 54.3426 96.0284 54.0559 96.0284 53.6974V52.9088V51.6183H95.8785H95.5411H95.4662C95.4662 51.6183 95.4662 51.5467 95.4662 51.5108C95.4662 51.5108 95.4662 51.4391 95.4662 51.2957L95.4287 51.2599ZM102.325 51.4033C102.513 51.5825 102.663 51.7976 102.775 52.0485C102.888 52.2994 102.925 52.5145 102.925 52.7296C102.925 53.1239 102.85 53.4465 102.738 53.6974C102.55 54.0559 102.288 54.3426 101.951 54.5219C101.613 54.7011 101.238 54.7728 100.789 54.7728C100.301 54.7728 99.889 54.6653 99.5142 54.4502C99.1769 54.2351 98.9145 53.9842 98.7646 53.7333C98.6146 53.4465 98.5397 53.1239 98.5397 52.7296C98.5397 52.5145 98.5397 52.3353 98.6521 52.1202C98.7271 51.9051 98.802 51.7259 98.952 51.5825C99.0644 51.4391 99.2144 51.2957 99.3643 51.1882C99.5892 51.0448 99.7766 50.9373 100.001 50.8656C100.226 50.7939 100.489 50.758 100.789 50.758C101.463 50.758 101.951 50.9373 102.325 51.3316V51.4033ZM99.7016 52.9805C99.7016 53.3748 99.7391 53.5899 99.7766 53.6257C99.8141 53.8408 99.889 54.02 99.964 54.1634C100.039 54.271 100.114 54.3426 100.264 54.4143C100.414 54.486 100.564 54.5219 100.751 54.5219C100.976 54.5219 101.163 54.4502 101.351 54.3068C101.501 54.1634 101.613 53.9483 101.688 53.6616C101.726 53.4823 101.763 53.1597 101.763 52.6937C101.763 52.156 101.651 51.7617 101.463 51.5108C101.276 51.2957 101.013 51.1523 100.714 51.1523C100.451 51.1523 100.264 51.224 100.114 51.3316C99.964 51.475 99.8515 51.6542 99.7766 51.9051C99.7391 52.0843 99.7016 52.407 99.7016 52.9447V52.9805ZM103.45 54.486C103.45 54.486 103.562 54.4143 103.6 54.4143C103.75 54.4143 103.9 54.3068 104.05 54.2351C104.05 54.1634 104.087 53.9125 104.087 53.4823C104.087 52.7296 104.087 52.1919 104.05 51.941C104.05 51.9051 104.05 51.8334 103.975 51.7976C103.9 51.7617 103.787 51.7259 103.637 51.69C103.562 51.69 103.525 51.6542 103.525 51.5825V51.4033C103.75 51.4033 103.975 51.2957 104.162 51.1882C104.349 51.0807 104.499 50.9373 104.574 50.8297C104.612 50.758 104.687 50.7222 104.724 50.6863H105.062C105.062 50.6863 105.062 50.7939 105.062 50.8297C105.062 50.8297 105.062 50.9014 105.062 50.9373C105.062 51.0448 105.062 51.1165 105.062 51.1882C105.062 51.1882 105.062 51.3316 105.062 51.5825C105.174 51.3674 105.286 51.224 105.361 51.1523C105.361 51.1523 105.474 51.0448 105.624 50.9373C105.736 50.8656 105.849 50.8297 105.999 50.8297C106.148 50.8297 106.298 50.9014 106.448 51.009C106.561 51.1165 106.636 51.2599 106.636 51.4033C106.636 51.5467 106.598 51.69 106.486 51.7976C106.373 51.9051 106.261 51.9768 106.111 51.9768C105.961 51.9768 105.849 51.9051 105.699 51.7976C105.624 51.7259 105.549 51.69 105.474 51.69C105.474 51.69 105.361 51.7617 105.286 51.8693C105.211 52.0127 105.136 52.1919 105.136 52.3353V52.4428C105.136 52.6579 105.136 53.1956 105.136 54.02C105.136 54.0917 105.174 54.1634 105.211 54.2351C105.286 54.271 105.324 54.3068 105.399 54.3426C105.474 54.3426 105.549 54.3426 105.699 54.3785C105.849 54.3785 105.924 54.3785 105.961 54.4502C105.961 54.4502 105.999 54.5219 105.999 54.5577C105.999 54.5577 105.999 54.6294 105.999 54.7011H104.649C104.424 54.6653 104.199 54.6653 104.012 54.7011H103.937C103.937 54.7011 103.75 54.7011 103.45 54.7011C103.45 54.6653 103.45 54.6294 103.45 54.5936C103.45 54.5936 103.45 54.5219 103.45 54.486ZM107.198 53.4465C107.198 53.4465 107.348 53.4465 107.423 53.4465C107.423 53.4465 107.46 53.4465 107.535 53.4465H107.573C107.76 53.7691 107.873 53.9483 107.91 54.02C108.023 54.1276 108.135 54.2351 108.247 54.3068C108.322 54.3426 108.435 54.4143 108.585 54.4502C108.697 54.4502 108.81 54.5219 108.922 54.5219C109.11 54.5219 109.297 54.4502 109.447 54.3426C109.597 54.2351 109.672 54.0917 109.672 53.9483C109.672 53.8408 109.672 53.7691 109.597 53.6974C109.559 53.6257 109.447 53.554 109.259 53.4823C109.185 53.4823 108.997 53.4106 108.66 53.3031C108.36 53.2314 108.135 53.1956 108.098 53.1597C107.948 53.088 107.835 53.0163 107.685 52.9447C107.573 52.8371 107.498 52.7296 107.423 52.622C107.348 52.4428 107.31 52.2994 107.31 52.1919C107.31 51.9768 107.31 51.7617 107.423 51.6183C107.498 51.475 107.573 51.3316 107.723 51.224C107.798 51.1523 107.948 51.0448 108.135 51.009C108.322 50.9373 108.51 50.9014 108.735 50.9014C109.035 50.9014 109.297 50.9014 109.522 50.9731C109.747 51.009 109.934 51.0807 110.084 51.1523C110.084 51.224 110.122 51.3674 110.159 51.6183C110.159 51.8693 110.197 52.0127 110.197 52.0485C110.197 52.0485 110.197 52.0843 110.197 52.1202C110.122 52.1202 110.047 52.1202 110.009 52.1202C110.009 52.1202 109.934 52.1202 109.859 52.1202C109.859 52.0843 109.784 52.0127 109.747 51.941C109.597 51.6542 109.447 51.475 109.259 51.3674C109.11 51.2599 108.922 51.1882 108.697 51.1882C108.472 51.1882 108.285 51.2599 108.135 51.3674C108.023 51.4391 107.985 51.5825 107.985 51.7259C107.985 51.8334 108.06 51.941 108.173 52.0127C108.285 52.1202 108.472 52.1919 108.735 52.2636C109.147 52.3353 109.447 52.4428 109.634 52.5145C109.934 52.6579 110.122 52.8013 110.234 52.9805C110.346 53.1597 110.421 53.339 110.421 53.5899C110.421 53.9483 110.271 54.2351 110.009 54.486C109.747 54.737 109.334 54.8445 108.81 54.8445C108.735 54.8445 108.547 54.8445 108.247 54.8086C108.098 54.8086 107.948 54.7728 107.76 54.7011C107.723 54.7011 107.61 54.6294 107.423 54.5577C107.423 54.5577 107.348 54.5219 107.348 54.486C107.348 54.486 107.348 54.3426 107.273 54.0917C107.235 53.7333 107.198 53.5182 107.198 53.4106V53.4465ZM113.158 54.7011V54.3785C113.158 54.3785 113.345 54.3426 113.495 54.3068C113.72 54.271 113.87 54.2351 113.945 54.1993C113.982 54.1993 114.057 54.0917 114.132 53.9483L115.107 51.5467L116.231 48.7148C116.231 48.7148 116.418 48.7148 116.531 48.7148H116.756V48.7865L117.618 50.6505C117.805 51.0448 117.955 51.4391 118.105 51.7976C118.255 52.156 118.368 52.4787 118.48 52.7296C118.555 52.873 118.63 53.088 118.742 53.3748C118.817 53.5182 118.892 53.7333 119.005 53.9483C119.08 54.0917 119.117 54.1634 119.155 54.1634C119.23 54.1993 119.305 54.2351 119.417 54.271C119.529 54.271 119.679 54.3068 119.829 54.3785C119.829 54.486 119.829 54.5577 119.829 54.5936C119.829 54.5936 119.829 54.6653 119.829 54.7011C119.604 54.7011 119.342 54.7011 119.042 54.7011C118.742 54.7011 118.517 54.7011 118.293 54.7011C118.03 54.7011 117.88 54.7011 117.768 54.7011H116.943L116.718 54.737C116.718 54.6294 116.718 54.5219 116.718 54.4143L117.243 54.3068C117.243 54.3068 117.505 54.2351 117.505 54.1993C117.505 54.1993 117.543 54.1276 117.543 54.0917C117.543 54.0559 117.543 54.02 117.543 53.9842L117.356 53.554L116.981 52.6579H115.182C115.182 52.6579 114.994 53.1597 114.769 53.7333C114.694 53.8766 114.694 54.02 114.694 54.0559C114.694 54.1276 114.694 54.1993 114.769 54.2351C114.844 54.3068 114.994 54.3426 115.182 54.3426C115.182 54.3426 115.332 54.3426 115.519 54.3785C115.519 54.486 115.519 54.5577 115.519 54.5936C115.519 54.5936 115.519 54.6653 115.519 54.7011C115.332 54.7011 114.844 54.7011 114.095 54.6294H113.907C113.682 54.7011 113.457 54.7011 113.233 54.7011H113.158ZM115.369 52.156C116.119 52.156 116.531 52.156 116.681 52.156H116.793C116.681 51.8693 116.568 51.5825 116.418 51.224C116.269 50.8656 116.156 50.5788 116.044 50.3996L115.369 52.156ZM120.092 53.4465C120.092 53.4465 120.242 53.4465 120.317 53.4465C120.317 53.4465 120.354 53.4465 120.429 53.4465H120.467C120.654 53.7691 120.766 53.9483 120.804 54.02C120.916 54.1276 121.029 54.2351 121.141 54.3068C121.216 54.3426 121.329 54.4143 121.479 54.4502C121.591 54.4502 121.703 54.5219 121.816 54.5219C122.003 54.5219 122.191 54.4502 122.341 54.3426C122.491 54.2351 122.566 54.0917 122.566 53.9483C122.566 53.8408 122.566 53.7691 122.491 53.6974C122.453 53.6257 122.341 53.554 122.153 53.4823C122.078 53.4823 121.891 53.4106 121.554 53.3031C121.254 53.2314 121.029 53.1956 120.991 53.1597C120.841 53.088 120.729 53.0163 120.579 52.9447C120.467 52.8371 120.392 52.7296 120.317 52.622C120.242 52.4428 120.204 52.2994 120.204 52.1919C120.204 51.9768 120.204 51.7617 120.317 51.6183C120.392 51.475 120.467 51.3316 120.616 51.224C120.691 51.1523 120.841 51.0448 121.029 51.009C121.216 50.9373 121.404 50.9014 121.628 50.9014C121.928 50.9014 122.191 50.9014 122.416 50.9731C122.64 51.009 122.828 51.0807 122.978 51.1523C122.978 51.224 123.015 51.3674 123.053 51.6183C123.053 51.8693 123.09 52.0127 123.09 52.0485C123.09 52.0485 123.09 52.0843 123.09 52.1202C123.015 52.1202 122.94 52.1202 122.903 52.1202C122.903 52.1202 122.828 52.1202 122.753 52.1202C122.753 52.0843 122.678 52.0127 122.64 51.941C122.491 51.6542 122.341 51.475 122.153 51.3674C122.003 51.2599 121.816 51.1882 121.591 51.1882C121.366 51.1882 121.179 51.2599 121.029 51.3674C120.916 51.4391 120.879 51.5825 120.879 51.7259C120.879 51.8334 120.954 51.941 121.066 52.0127C121.179 52.1202 121.366 52.1919 121.628 52.2636C122.041 52.3353 122.341 52.4428 122.528 52.5145C122.828 52.6579 123.015 52.8013 123.128 52.9805C123.24 53.1597 123.315 53.339 123.315 53.5899C123.315 53.9483 123.165 54.2351 122.903 54.486C122.64 54.737 122.228 54.8445 121.703 54.8445C121.628 54.8445 121.441 54.8445 121.141 54.8086C120.991 54.8086 120.841 54.7728 120.654 54.7011C120.616 54.7011 120.504 54.6294 120.317 54.5577C120.317 54.5577 120.242 54.5219 120.242 54.486C120.242 54.486 120.242 54.3426 120.167 54.0917C120.129 53.7333 120.092 53.5182 120.092 53.4106V53.4465ZM124.14 53.4465C124.14 53.4465 124.29 53.4465 124.365 53.4465C124.365 53.4465 124.402 53.4465 124.477 53.4465H124.515C124.702 53.7691 124.814 53.9483 124.852 54.02C124.964 54.1276 125.077 54.2351 125.189 54.3068C125.264 54.3426 125.377 54.4143 125.527 54.4502C125.639 54.4502 125.751 54.5219 125.864 54.5219C126.051 54.5219 126.239 54.4502 126.389 54.3426C126.539 54.2351 126.614 54.0917 126.614 53.9483C126.614 53.8408 126.614 53.7691 126.539 53.6974C126.501 53.6257 126.389 53.554 126.201 53.4823C126.126 53.4823 125.939 53.4106 125.602 53.3031C125.302 53.2314 125.077 53.1956 125.039 53.1597C124.889 53.088 124.777 53.0163 124.627 52.9447C124.515 52.8371 124.44 52.7296 124.365 52.622C124.29 52.4428 124.252 52.2994 124.252 52.1919C124.252 51.9768 124.252 51.7617 124.365 51.6183C124.44 51.475 124.515 51.3316 124.664 51.224C124.739 51.1523 124.889 51.0448 125.077 51.009C125.264 50.9373 125.452 50.9014 125.677 50.9014C125.976 50.9014 126.239 50.9014 126.464 50.9731C126.689 51.009 126.876 51.0807 127.026 51.1523C127.026 51.224 127.063 51.3674 127.101 51.6183C127.101 51.8693 127.138 52.0127 127.138 52.0485C127.138 52.0485 127.138 52.0843 127.138 52.1202C127.063 52.1202 126.988 52.1202 126.951 52.1202C126.951 52.1202 126.876 52.1202 126.801 52.1202C126.801 52.0843 126.726 52.0127 126.689 51.941C126.539 51.6542 126.389 51.475 126.201 51.3674C126.051 51.2599 125.864 51.1882 125.639 51.1882C125.414 51.1882 125.227 51.2599 125.077 51.3674C124.964 51.4391 124.927 51.5825 124.927 51.7259C124.927 51.8334 125.002 51.941 125.114 52.0127C125.227 52.1202 125.414 52.1919 125.677 52.2636C126.089 52.3353 126.389 52.4428 126.576 52.5145C126.876 52.6579 127.063 52.8013 127.176 52.9805C127.288 53.1597 127.363 53.339 127.363 53.5899C127.363 53.9483 127.213 54.2351 126.951 54.486C126.689 54.737 126.276 54.8445 125.751 54.8445C125.677 54.8445 125.489 54.8445 125.189 54.8086C125.039 54.8086 124.889 54.7728 124.702 54.7011C124.664 54.7011 124.552 54.6294 124.365 54.5577C124.365 54.5577 124.29 54.5219 124.29 54.486C124.29 54.486 124.29 54.3426 124.215 54.0917C124.177 53.7333 124.14 53.5182 124.14 53.4106V53.4465ZM131.898 51.4033C132.086 51.5825 132.236 51.7976 132.348 52.0485C132.461 52.2994 132.498 52.5145 132.498 52.7296C132.498 53.1239 132.423 53.4465 132.311 53.6974C132.123 54.0559 131.861 54.3426 131.524 54.5219C131.186 54.7011 130.812 54.7728 130.362 54.7728C129.874 54.7728 129.462 54.6653 129.087 54.4502C128.75 54.2351 128.488 53.9842 128.338 53.7333C128.188 53.4465 128.113 53.1239 128.113 52.7296C128.113 52.5145 128.113 52.3353 128.225 52.1202C128.3 51.9051 128.375 51.7259 128.525 51.5825C128.638 51.4391 128.788 51.2957 128.937 51.1882C129.162 51.0448 129.35 50.9373 129.575 50.8656C129.8 50.7939 130.062 50.758 130.362 50.758C131.036 50.758 131.524 50.9373 131.898 51.3316V51.4033ZM129.275 52.9805C129.275 53.3748 129.312 53.5899 129.35 53.6257C129.387 53.8408 129.462 54.02 129.537 54.1634C129.612 54.271 129.687 54.3426 129.837 54.4143C129.987 54.486 130.137 54.5219 130.324 54.5219C130.549 54.5219 130.737 54.4502 130.924 54.3068C131.074 54.1634 131.186 53.9483 131.261 53.6616C131.299 53.4823 131.336 53.1597 131.336 52.6937C131.336 52.156 131.224 51.7617 131.036 51.5108C130.849 51.2957 130.587 51.1523 130.287 51.1523C130.024 51.1523 129.837 51.224 129.687 51.3316C129.537 51.475 129.425 51.6542 129.35 51.9051C129.312 52.0843 129.275 52.407 129.275 52.9447V52.9805ZM136.921 53.5182C136.921 53.5182 136.996 53.554 137.033 53.5899C137.108 53.5899 137.183 53.6616 137.221 53.6974C137.146 53.9842 136.921 54.271 136.584 54.486C136.246 54.7011 135.834 54.8086 135.347 54.8086C135.047 54.8086 134.71 54.737 134.41 54.6294C134.11 54.486 133.848 54.3426 133.66 54.1276C133.51 53.9842 133.398 53.7691 133.323 53.554C133.248 53.3031 133.21 53.1239 133.21 52.9447C133.21 52.7654 133.248 52.5145 133.36 52.2636C133.435 52.0127 133.585 51.7617 133.81 51.5467C134.035 51.3316 134.297 51.1523 134.597 51.009C134.897 50.8656 135.272 50.8297 135.684 50.8297C136.246 50.8297 136.621 50.9014 136.846 51.0807C137.071 51.2599 137.183 51.4033 137.183 51.5825C137.183 51.7617 137.146 51.8693 137.033 51.9768C136.959 52.0843 136.846 52.1202 136.659 52.1202C136.546 52.1202 136.396 52.0843 136.284 52.0127C136.171 51.941 136.096 51.7976 136.021 51.5825C135.947 51.4391 135.909 51.3316 135.797 51.2957C135.722 51.224 135.609 51.1882 135.497 51.1882C135.197 51.1882 134.935 51.2957 134.71 51.5467C134.485 51.7976 134.372 52.1202 134.372 52.5503C134.372 53.0522 134.522 53.4465 134.785 53.7691C135.084 54.0559 135.384 54.2351 135.759 54.2351C135.947 54.2351 136.096 54.2351 136.209 54.1634C136.284 54.1634 136.396 54.0917 136.546 53.9842C136.546 53.9842 136.659 53.9125 136.734 53.805C136.846 53.6974 136.884 53.6257 136.921 53.5899V53.5182ZM138.233 49.2883C138.233 49.2883 138.27 49.0016 138.383 48.894C138.495 48.7865 138.645 48.7507 138.795 48.7507C138.983 48.7507 139.132 48.8223 139.245 48.9299C139.357 49.0374 139.432 49.1808 139.432 49.2883C139.432 49.3959 139.432 49.5034 139.357 49.611C139.32 49.7185 139.245 49.7902 139.132 49.8619C139.02 49.9336 138.908 49.9694 138.795 49.9694C138.645 49.9694 138.495 49.8977 138.383 49.7902C138.27 49.6827 138.195 49.5034 138.195 49.36L138.233 49.2883ZM137.558 54.7011V54.4143L138.083 54.3426C138.158 54.3426 138.233 54.3068 138.233 54.2351C138.233 54.1993 138.27 54.0917 138.27 53.9483C138.27 53.9483 138.27 53.805 138.27 53.6974C138.27 53.5899 138.27 53.5182 138.27 53.4465C138.27 53.3748 138.27 53.2673 138.27 53.1239V52.9088V52.6937V51.941C138.27 51.941 138.27 51.7617 138.27 51.6542C138.27 51.6183 138.158 51.5825 138.083 51.5467C138.008 51.5467 137.821 51.475 137.596 51.475V51.224C137.933 51.224 138.195 51.1523 138.458 51.0448C138.608 50.9731 138.795 50.8297 139.02 50.6505H139.357C139.357 51.009 139.357 51.5108 139.357 52.1202V53.9842C139.357 53.9842 139.357 54.2351 139.357 54.3426C139.47 54.3426 139.62 54.4143 139.845 54.4502C139.92 54.4502 139.995 54.4502 140.032 54.486V54.737C140.032 54.737 139.882 54.737 139.845 54.737C139.807 54.737 139.732 54.737 139.62 54.737C139.282 54.737 138.87 54.737 138.308 54.737C138.158 54.737 138.008 54.737 137.858 54.737C137.708 54.737 137.596 54.737 137.558 54.737V54.7011Z" fill="#202020"/>
<path d="M144.53 53.8408L144.642 53.9125C144.642 53.9125 144.68 53.9483 144.68 53.9842C144.605 54.271 144.492 54.4502 144.38 54.5577C144.267 54.6653 144.118 54.7011 143.93 54.7011C143.743 54.7011 143.593 54.6653 143.443 54.5577C143.293 54.4502 143.18 54.271 143.068 54.02C142.918 54.2351 142.731 54.4143 142.506 54.5577C142.243 54.6653 141.944 54.737 141.606 54.737C141.269 54.737 141.044 54.6653 140.894 54.5219C140.744 54.3785 140.669 54.1993 140.669 54.02C140.669 53.9125 140.669 53.805 140.744 53.6974C140.782 53.5899 140.857 53.4823 140.969 53.3748C141.082 53.2673 141.231 53.1597 141.456 53.0522C141.456 53.0522 141.606 52.9805 141.831 52.9088L143.031 52.4428C143.031 52.4428 143.031 52.2277 143.031 52.0843C143.031 51.69 142.993 51.4033 142.881 51.2599C142.806 51.1882 142.693 51.1165 142.543 51.1165C142.393 51.1165 142.243 51.1165 142.094 51.1882C141.944 51.2599 141.869 51.3316 141.794 51.4033C141.756 51.475 141.719 51.5825 141.681 51.7976C141.681 51.941 141.644 52.0127 141.606 52.0127C141.569 52.0843 141.456 52.1202 141.344 52.156C141.231 52.1919 141.119 52.2277 141.082 52.2636C140.894 52.3353 140.782 52.3711 140.669 52.3711C140.632 52.3711 140.594 52.2994 140.594 52.2277C140.594 52.0485 140.632 51.9051 140.707 51.7976C140.819 51.6183 141.007 51.4391 141.231 51.2957C141.456 51.1165 141.681 51.009 141.869 50.9373C142.131 50.8656 142.468 50.7939 142.881 50.7939C143.143 50.7939 143.368 50.8297 143.518 50.9373C143.705 51.0448 143.818 51.1523 143.893 51.3316C143.968 51.5108 144.005 51.8334 144.005 52.2636V53.0163V53.554V53.6974C144.005 53.6974 144.005 53.9125 144.043 53.9483C144.043 53.9842 144.118 54.02 144.193 54.02H144.267L144.417 53.805H144.492L144.53 53.8408ZM142.993 52.8013C142.993 52.8013 142.618 52.9447 142.393 53.088C142.168 53.2314 142.019 53.3748 141.906 53.4823C141.831 53.5899 141.794 53.6974 141.794 53.8408C141.794 53.9842 141.831 54.0917 141.906 54.1634C141.981 54.2351 142.094 54.3068 142.206 54.3068C142.393 54.3068 142.543 54.271 142.656 54.1634C142.806 54.02 142.918 53.9125 142.956 53.8408C142.956 53.7691 142.993 53.554 142.993 53.1956C142.993 53.0522 142.993 52.9446 142.993 52.8013ZM145.092 51.2599C145.467 51.1165 145.729 50.9731 145.917 50.8297C146.067 50.6863 146.254 50.4354 146.441 50.1128H146.704C146.704 50.1128 146.741 50.2562 146.741 50.3637C146.741 50.5071 146.741 50.6505 146.741 50.7222V50.9731C146.741 50.9731 146.741 51.009 146.741 51.0807H146.854C146.854 51.0807 147.004 51.0807 147.303 51.0807C147.303 51.0807 147.453 51.0807 147.678 51.0807C147.678 51.1523 147.678 51.224 147.678 51.2957C147.678 51.3674 147.678 51.4391 147.678 51.5467C147.566 51.5467 147.491 51.5467 147.453 51.5467C147.453 51.5467 147.378 51.5467 147.303 51.5467H146.966H146.741V53.2673C146.741 53.5899 146.741 53.805 146.741 53.9125C146.741 53.9842 146.779 54.0917 146.854 54.1634C146.929 54.1634 147.004 54.1993 147.079 54.1993C147.154 54.1993 147.229 54.1993 147.266 54.1993C147.303 54.1993 147.378 54.1276 147.491 54.0559C147.491 54.0559 147.528 54.02 147.566 53.9842C147.641 54.0559 147.716 54.0917 147.753 54.1634V54.2351C147.753 54.2351 147.491 54.5219 147.303 54.6294C147.116 54.737 146.891 54.7728 146.666 54.7728C146.366 54.7728 146.142 54.7011 145.954 54.5219C145.767 54.3426 145.692 54.0559 145.692 53.6974V52.9088V51.6183H145.542H145.205H145.13C145.13 51.6183 145.13 51.5467 145.13 51.5108C145.13 51.5108 145.13 51.4391 145.13 51.2957L145.092 51.2599ZM148.653 49.2883C148.653 49.2883 148.69 49.0016 148.803 48.894C148.915 48.7865 149.065 48.7507 149.215 48.7507C149.402 48.7507 149.552 48.8223 149.665 48.9299C149.777 49.0374 149.852 49.1808 149.852 49.2883C149.852 49.3959 149.852 49.5034 149.777 49.611C149.74 49.7185 149.665 49.7902 149.552 49.8619C149.44 49.9336 149.328 49.9694 149.215 49.9694C149.065 49.9694 148.915 49.8977 148.803 49.7902C148.69 49.6827 148.615 49.5034 148.615 49.36L148.653 49.2883ZM148.016 54.7011V54.4143L148.54 54.3426C148.615 54.3426 148.69 54.3068 148.69 54.2351C148.69 54.1993 148.728 54.0917 148.728 53.9483C148.728 53.9483 148.728 53.805 148.728 53.6974C148.728 53.5899 148.728 53.5182 148.728 53.4465C148.728 53.3748 148.728 53.2673 148.728 53.1239V52.9088V52.6937V51.941C148.728 51.941 148.728 51.7617 148.728 51.6542C148.728 51.6183 148.615 51.5825 148.54 51.5467C148.465 51.5467 148.278 51.475 148.053 51.475V51.224C148.39 51.224 148.653 51.1523 148.915 51.0448C149.065 50.9731 149.253 50.8297 149.477 50.6505H149.815C149.815 51.009 149.815 51.5108 149.815 52.1202V53.9842C149.815 53.9842 149.815 54.2351 149.815 54.3426C149.927 54.3426 150.077 54.4143 150.302 54.4502C150.377 54.4502 150.452 54.4502 150.489 54.486V54.737C150.489 54.737 150.34 54.737 150.302 54.737C150.265 54.737 150.19 54.737 150.077 54.737C149.74 54.737 149.328 54.737 148.765 54.737C148.615 54.737 148.465 54.737 148.315 54.737C148.166 54.737 148.053 54.737 148.016 54.737V54.7011ZM154.687 51.4033C154.875 51.5825 155.025 51.7976 155.137 52.0485C155.25 52.2994 155.287 52.5145 155.287 52.7296C155.287 53.1239 155.212 53.4465 155.1 53.6974C154.912 54.0559 154.65 54.3426 154.313 54.5219C153.975 54.7011 153.6 54.7728 153.151 54.7728C152.663 54.7728 152.251 54.6653 151.876 54.4502C151.539 54.2351 151.277 53.9842 151.127 53.7333C150.977 53.4465 150.902 53.1239 150.902 52.7296C150.902 52.5145 150.902 52.3353 151.014 52.1202C151.089 51.9051 151.164 51.7259 151.314 51.5825C151.426 51.4391 151.576 51.2957 151.726 51.1882C151.951 51.0448 152.139 50.9373 152.364 50.8656C152.588 50.7939 152.851 50.758 153.151 50.758C153.825 50.758 154.313 50.9373 154.687 51.3316V51.4033ZM152.101 52.9805C152.101 53.3748 152.139 53.5899 152.176 53.6257C152.214 53.8408 152.289 54.02 152.364 54.1634C152.439 54.271 152.513 54.3426 152.663 54.4143C152.813 54.486 152.963 54.5219 153.151 54.5219C153.376 54.5219 153.563 54.4502 153.75 54.3068C153.9 54.1634 154.013 53.9483 154.088 53.6616C154.125 53.4823 154.163 53.1597 154.163 52.6937C154.163 52.156 154.05 51.7617 153.863 51.5108C153.675 51.2957 153.413 51.1523 153.113 51.1523C152.851 51.1523 152.663 51.224 152.513 51.3316C152.364 51.475 152.251 51.6542 152.176 51.9051C152.139 52.0843 152.101 52.407 152.101 52.9447V52.9805ZM155.849 54.486C155.849 54.486 155.999 54.4143 156.074 54.4143C156.262 54.4143 156.337 54.3785 156.374 54.3426C156.412 54.3426 156.449 54.271 156.487 54.2351C156.487 54.1634 156.487 54.0559 156.487 53.8408V53.1239V52.6579V52.3711C156.487 52.1919 156.487 52.0127 156.449 51.9051C156.449 51.8693 156.412 51.7976 156.337 51.7617C156.262 51.69 156.112 51.6542 155.887 51.5825V51.3674C155.887 51.3674 155.962 51.3674 155.999 51.3674C155.999 51.3674 156.149 51.3674 156.374 51.2957C156.561 51.224 156.674 51.1882 156.711 51.1523C156.711 51.1523 156.749 51.1523 156.786 51.1165C156.824 51.1165 156.861 51.0448 156.899 51.009C157.011 50.9373 157.124 50.8297 157.236 50.6863H157.499V51.1882C157.499 51.224 157.499 51.2957 157.499 51.2957C157.499 51.2957 157.499 51.4033 157.499 51.5108C157.761 51.2957 157.986 51.1523 158.211 51.0448C158.511 50.9373 158.773 50.8656 158.998 50.8656C159.298 50.8656 159.56 50.9373 159.785 51.0807C160.01 51.224 160.16 51.3674 160.235 51.5825C160.31 51.7617 160.347 52.156 160.347 52.6937V54.1634C160.347 54.1634 160.347 54.3068 160.347 54.3426C160.347 54.3426 160.46 54.3785 160.61 54.4143H160.834C160.834 54.4143 160.872 54.5577 160.872 54.5936C160.872 54.6294 160.872 54.6653 160.872 54.737L159.935 54.6653H159.672H159.448H158.81L158.66 54.7011C158.66 54.6653 158.66 54.6294 158.66 54.6294C158.66 54.5577 158.66 54.5219 158.66 54.4502C158.698 54.4502 158.81 54.4502 158.998 54.4143C159.035 54.4143 159.11 54.4143 159.148 54.4143C159.223 54.4143 159.26 54.3785 159.26 54.3426C159.26 54.3068 159.298 54.1993 159.298 54.0559C159.298 53.805 159.298 53.5899 159.298 53.4823V52.9447C159.298 52.2994 159.298 51.9051 159.185 51.7617C159.073 51.5467 158.885 51.4033 158.66 51.4033C158.473 51.4033 158.286 51.4391 158.098 51.5467C157.911 51.6183 157.723 51.7617 157.499 51.941V52.0127V52.2994V52.5862V53.3031V53.4106C157.499 53.9125 157.499 54.1993 157.536 54.2351C157.573 54.3068 157.723 54.3785 158.023 54.4502C158.023 54.486 158.023 54.5219 158.023 54.5577C158.023 54.5577 158.023 54.6653 158.023 54.737C157.911 54.737 157.836 54.737 157.761 54.737C157.686 54.737 157.573 54.737 157.461 54.737H156.936C156.674 54.737 156.299 54.737 155.849 54.737C155.849 54.737 155.849 54.6653 155.849 54.6294C155.849 54.6294 155.849 54.5577 155.849 54.486ZM167.581 51.4033C167.769 51.5825 167.918 51.7976 168.031 52.0485C168.143 52.2994 168.181 52.5145 168.181 52.7296C168.181 53.1239 168.106 53.4465 167.993 53.6974C167.806 54.0559 167.544 54.3426 167.206 54.5219C166.869 54.7011 166.494 54.7728 166.044 54.7728C165.557 54.7728 165.145 54.6653 164.77 54.4502C164.433 54.2351 164.17 53.9842 164.02 53.7333C163.87 53.4465 163.795 53.1239 163.795 52.7296C163.795 52.5145 163.795 52.3353 163.908 52.1202C163.983 51.9051 164.058 51.7259 164.208 51.5825C164.32 51.4391 164.47 51.2957 164.62 51.1882C164.845 51.0448 165.032 50.9373 165.257 50.8656C165.482 50.7939 165.745 50.758 166.044 50.758C166.719 50.758 167.206 50.9373 167.581 51.3316V51.4033ZM164.995 52.9805C164.995 53.3748 165.032 53.5899 165.07 53.6257C165.107 53.8408 165.182 54.02 165.257 54.1634C165.332 54.271 165.407 54.3426 165.557 54.4143C165.707 54.486 165.857 54.5219 166.044 54.5219C166.269 54.5219 166.457 54.4502 166.644 54.3068C166.794 54.1634 166.906 53.9483 166.981 53.6616C167.019 53.4823 167.056 53.1597 167.056 52.6937C167.056 52.156 166.944 51.7617 166.757 51.5108C166.569 51.2957 166.307 51.1523 166.007 51.1523C165.745 51.1523 165.557 51.224 165.407 51.3316C165.257 51.475 165.145 51.6542 165.07 51.9051C165.032 52.0843 164.995 52.407 164.995 52.9447V52.9805ZM168.781 54.7011V54.4502C168.781 54.4502 168.93 54.3785 169.118 54.3426C169.305 54.3068 169.38 54.271 169.418 54.2351C169.418 54.2351 169.455 54.1634 169.455 54.0917V53.9842C169.455 53.6974 169.455 53.554 169.455 53.5182C169.455 53.5182 169.455 53.4465 169.455 53.4106V53.339V53.2673V52.4428V51.5825V51.5108C169.38 51.5108 169.305 51.5108 169.193 51.5108H168.893C168.893 51.5108 168.856 51.5108 168.818 51.5108C168.818 51.4391 168.818 51.3674 168.818 51.3316C168.818 51.2599 168.818 51.1882 168.893 51.1165C169.005 51.1165 169.193 51.1165 169.455 51.1165C169.455 50.758 169.53 50.3996 169.643 50.1128C169.755 49.7902 169.905 49.5393 170.055 49.36L170.167 49.2167C170.392 49.0374 170.58 48.9299 170.73 48.8582C170.917 48.7865 171.104 48.7507 171.367 48.7507C171.629 48.7507 171.779 48.7865 171.967 48.8582C172.116 48.9299 172.229 49.0374 172.266 49.145C172.341 49.2525 172.341 49.36 172.341 49.4676C172.341 49.5751 172.304 49.6827 172.191 49.7902C172.079 49.8977 171.967 49.9336 171.854 49.9336C171.742 49.9336 171.667 49.9336 171.592 49.826C171.517 49.7902 171.442 49.6827 171.367 49.5393C171.292 49.3959 171.217 49.2883 171.142 49.2525C171.104 49.2525 171.029 49.1808 170.955 49.1808C170.842 49.1808 170.767 49.2167 170.692 49.2883C170.617 49.36 170.58 49.4676 170.542 49.611C170.542 49.7543 170.505 50.0053 170.505 50.4354V50.9373V51.0807H170.58H171.142C171.142 51.0807 171.217 51.0807 171.292 51.0807C171.329 51.0807 171.367 51.1523 171.367 51.1882V51.2599V51.3674C171.367 51.3674 171.367 51.4033 171.367 51.475C171.367 51.475 171.292 51.475 171.254 51.475H170.842C170.842 51.475 170.73 51.475 170.692 51.475H170.655C170.655 51.475 170.58 51.475 170.505 51.475V51.69C170.505 51.69 170.505 51.7617 170.505 51.7976C170.505 51.9768 170.505 52.0843 170.505 52.156V52.8371V53.339V53.7333C170.505 54.02 170.505 54.1634 170.58 54.2351C170.655 54.3068 170.88 54.3785 171.142 54.4143C171.179 54.4143 171.254 54.4143 171.292 54.4143C171.292 54.486 171.292 54.5219 171.292 54.5577C171.292 54.5577 171.292 54.6294 171.292 54.7011H170.955C170.955 54.7011 170.73 54.7011 170.392 54.7011H170.13C169.868 54.7011 169.68 54.7011 169.568 54.7011C169.493 54.7011 169.23 54.7011 168.781 54.7011ZM175.827 54.7011V54.3785C175.827 54.3785 175.977 54.3426 176.127 54.3068C176.314 54.271 176.502 54.1993 176.577 54.1634C176.652 54.0559 176.652 53.9483 176.652 53.7691V53.2314V52.1919V51.941C176.652 51.3316 176.652 51.0448 176.652 51.009V50.3996V50.1487V49.6468V49.4676C176.652 49.4676 176.652 49.3959 176.652 49.3242C176.539 49.2525 176.314 49.2167 176.015 49.2167C175.94 49.2167 175.902 49.2167 175.865 49.2167V48.8224L177.214 48.894C177.364 48.894 177.476 48.894 177.514 48.894C177.701 48.894 178.001 48.894 178.413 48.8582C178.638 48.8582 178.788 48.8582 178.863 48.8582C178.863 48.9299 178.863 48.9657 178.863 49.0016C178.863 49.0374 178.863 49.1091 178.863 49.2167C178.751 49.2525 178.601 49.2884 178.413 49.3242C178.263 49.36 178.114 49.3959 178.001 49.4317C178.001 49.5034 178.001 49.611 178.001 49.7902C178.001 49.9336 178.001 50.0411 178.001 50.1128C178.001 50.6147 178.001 51.009 178.001 51.2957V52.4787V53.088V53.9842V54.1634C178.001 54.1634 178.001 54.2351 178.001 54.271C178.189 54.3068 178.376 54.3426 178.526 54.3426C178.526 54.3426 178.638 54.3426 178.826 54.3785C178.826 54.486 178.826 54.5577 178.826 54.5936C178.826 54.5936 178.826 54.6653 178.826 54.737C178.788 54.737 178.751 54.737 178.713 54.737C178.601 54.737 178.563 54.737 178.526 54.737C178.526 54.737 178.451 54.737 178.413 54.737C178.376 54.737 178.151 54.737 177.776 54.6653H176.952C176.952 54.6653 176.539 54.6653 176.202 54.7011C175.977 54.7011 175.865 54.7011 175.79 54.7011H175.827ZM179.463 54.486C179.463 54.486 179.613 54.4143 179.688 54.4143C179.875 54.4143 179.95 54.3785 179.988 54.3426C180.025 54.3426 180.063 54.271 180.1 54.2351C180.1 54.1634 180.1 54.0559 180.1 53.8408V53.1239V52.6579V52.3711C180.1 52.1919 180.1 52.0127 180.063 51.9051C180.063 51.8693 180.025 51.7976 179.95 51.7617C179.875 51.69 179.725 51.6542 179.5 51.5825V51.3674C179.5 51.3674 179.575 51.3674 179.613 51.3674C179.613 51.3674 179.763 51.3674 179.988 51.2957C180.175 51.224 180.287 51.1882 180.325 51.1523C180.325 51.1523 180.362 51.1523 180.4 51.1165C180.437 51.1165 180.475 51.0448 180.512 51.009C180.625 50.9373 180.737 50.8297 180.85 50.6863H181.112V51.1882C181.112 51.224 181.112 51.2957 181.112 51.2957C181.112 51.2957 181.112 51.4033 181.112 51.5108C181.374 51.2957 181.599 51.1523 181.824 51.0448C182.124 50.9373 182.386 50.8656 182.611 50.8656C182.911 50.8656 183.174 50.9373 183.398 51.0807C183.623 51.224 183.773 51.3674 183.848 51.5825C183.923 51.7617 183.961 52.156 183.961 52.6937V54.1634C183.961 54.1634 183.961 54.3068 183.961 54.3426C183.961 54.3426 184.073 54.3785 184.223 54.4143H184.448C184.448 54.4143 184.485 54.5577 184.485 54.5936C184.485 54.6294 184.485 54.6653 184.485 54.737L183.548 54.6653H183.286H183.061H182.424L182.274 54.7011C182.274 54.6653 182.274 54.6294 182.274 54.6294C182.274 54.5577 182.274 54.5219 182.274 54.4502C182.312 54.4502 182.424 54.4502 182.611 54.4143C182.649 54.4143 182.724 54.4143 182.761 54.4143C182.836 54.4143 182.874 54.3785 182.874 54.3426C182.874 54.3068 182.911 54.1993 182.911 54.0559C182.911 53.805 182.911 53.5899 182.911 53.4823V52.9447C182.911 52.2994 182.911 51.9051 182.799 51.7617C182.686 51.5467 182.499 51.4033 182.274 51.4033C182.087 51.4033 181.899 51.4391 181.712 51.5467C181.524 51.6183 181.337 51.7617 181.112 51.941V52.0127V52.2994V52.5862V53.3031V53.4106C181.112 53.9125 181.112 54.1993 181.15 54.2351C181.187 54.3068 181.337 54.3785 181.637 54.4502C181.637 54.486 181.637 54.5219 181.637 54.5577C181.637 54.5577 181.637 54.6653 181.637 54.737C181.524 54.737 181.449 54.737 181.374 54.737C181.299 54.737 181.187 54.737 181.075 54.737H180.55C180.287 54.737 179.913 54.737 179.463 54.737C179.463 54.737 179.463 54.6653 179.463 54.6294C179.463 54.6294 179.463 54.5577 179.463 54.486ZM185.91 51.224C185.91 51.224 186.21 51.0448 186.36 51.009C186.509 50.9731 186.697 50.9373 186.959 50.9014H187.222C187.559 50.9014 187.896 51.009 188.196 51.2599V51.1523V50.8656V50.3637C188.196 49.8619 188.196 49.5393 188.084 49.3959C188.046 49.3242 187.934 49.2525 187.821 49.2525C187.709 49.2525 187.596 49.2525 187.521 49.1808V48.9657C187.521 48.9657 187.671 48.9657 187.746 48.9657C187.859 48.9657 188.009 48.9657 188.309 48.8582H188.459L188.946 48.7148C189.021 48.7148 189.096 48.7148 189.133 48.7148C189.133 48.7148 189.171 48.7148 189.208 48.7148C189.208 48.7865 189.208 48.8224 189.208 48.8582V48.9299V49.0016C189.208 49.0733 189.208 49.3242 189.208 49.6827V50.077V50.292V50.758V51.0448C189.208 51.1523 189.208 51.3674 189.208 51.6183C189.208 51.6542 189.208 51.69 189.208 51.7259V51.9051C189.208 51.9051 189.208 51.9768 189.208 52.0127C189.208 52.0485 189.208 52.1202 189.208 52.1919V52.5503C189.208 52.5503 189.208 52.7654 189.208 52.9088C189.208 53.0522 189.208 53.1956 189.208 53.339C189.208 53.3748 189.208 53.4465 189.208 53.4823V53.8408C189.208 53.8408 189.208 54.0917 189.208 54.2351C189.283 54.2351 189.396 54.3068 189.62 54.3068C189.695 54.3068 189.77 54.3068 189.808 54.3068C189.808 54.3426 189.808 54.3785 189.808 54.4143C189.808 54.4143 189.808 54.486 189.808 54.5219C189.695 54.5219 189.545 54.5577 189.396 54.5936C188.946 54.6294 188.646 54.7011 188.459 54.8086C188.384 54.8445 188.309 54.8803 188.271 54.8803C188.271 54.8803 188.196 54.8803 188.159 54.8803C188.159 54.8086 188.159 54.7728 188.159 54.7728C188.159 54.5577 188.159 54.4502 188.159 54.3785C188.121 54.3785 188.046 54.4502 187.971 54.486C187.746 54.5936 187.559 54.7011 187.409 54.737C187.222 54.7728 187.034 54.8086 186.809 54.8086C186.397 54.8086 186.097 54.737 185.872 54.5936C185.535 54.3785 185.273 54.1276 185.16 53.8408C185.01 53.554 184.973 53.2314 184.973 52.873C184.973 52.2636 185.273 51.7259 185.872 51.2957L185.91 51.224ZM187.372 54.2351C187.372 54.2351 187.484 54.2351 187.559 54.2351C187.671 54.2351 187.784 54.2351 187.896 54.1634C188.009 54.1276 188.159 54.0559 188.271 53.9842C188.271 53.8766 188.271 53.805 188.271 53.805C188.271 52.8371 188.271 52.2636 188.234 52.0843C188.234 51.8334 188.084 51.6183 187.934 51.475C187.746 51.3316 187.559 51.2599 187.297 51.2599C187.147 51.2599 187.034 51.2599 186.884 51.3316C186.772 51.3674 186.659 51.4391 186.584 51.5467C186.472 51.69 186.397 51.8334 186.322 52.0127C186.247 52.2636 186.21 52.4786 186.21 52.6579C186.21 53.1597 186.322 53.5182 186.547 53.805C186.772 54.0559 187.034 54.2351 187.409 54.271L187.372 54.2351ZM190.857 49.2883C190.857 49.2883 190.895 49.0016 191.007 48.894C191.12 48.7865 191.27 48.7507 191.42 48.7507C191.607 48.7507 191.757 48.8223 191.869 48.9299C191.982 49.0374 192.057 49.1808 192.057 49.2883C192.057 49.3959 192.057 49.5034 191.982 49.611C191.944 49.7185 191.869 49.7902 191.757 49.8619C191.644 49.9336 191.532 49.9694 191.42 49.9694C191.27 49.9694 191.12 49.8977 191.007 49.7902C190.895 49.6827 190.82 49.5034 190.82 49.36L190.857 49.2883ZM190.183 54.7011V54.4143L190.707 54.3426C190.782 54.3426 190.857 54.3068 190.857 54.2351C190.857 54.1993 190.895 54.0917 190.895 53.9483C190.895 53.9483 190.895 53.805 190.895 53.6974C190.895 53.5899 190.895 53.5182 190.895 53.4465C190.895 53.3748 190.895 53.2673 190.895 53.1239V52.9088V52.6937V51.941C190.895 51.941 190.895 51.7617 190.895 51.6542C190.895 51.6183 190.782 51.5825 190.707 51.5467C190.632 51.5467 190.445 51.475 190.22 51.475V51.224C190.557 51.224 190.82 51.1523 191.082 51.0448C191.232 50.9731 191.42 50.8297 191.644 50.6505H191.982C191.982 51.009 191.982 51.5108 191.982 52.1202V53.9842C191.982 53.9842 191.982 54.2351 191.982 54.3426C192.094 54.3426 192.244 54.4143 192.469 54.4502C192.544 54.4502 192.619 54.4502 192.656 54.486V54.737C192.656 54.737 192.507 54.737 192.469 54.737C192.432 54.737 192.357 54.737 192.244 54.737C191.907 54.737 191.495 54.737 190.932 54.737C190.782 54.737 190.632 54.737 190.483 54.737C190.333 54.737 190.22 54.737 190.183 54.737V54.7011ZM197.154 53.8408L197.267 53.9125C197.267 53.9125 197.304 53.9483 197.304 53.9842C197.229 54.271 197.117 54.4502 197.004 54.5577C196.892 54.6653 196.742 54.7011 196.555 54.7011C196.367 54.7011 196.217 54.6653 196.067 54.5577C195.917 54.4502 195.805 54.271 195.692 54.02C195.543 54.2351 195.355 54.4143 195.13 54.5577C194.868 54.6653 194.568 54.737 194.231 54.737C193.893 54.737 193.668 54.6653 193.519 54.5219C193.369 54.3785 193.294 54.1993 193.294 54.02C193.294 53.9125 193.294 53.805 193.369 53.6974C193.406 53.5899 193.481 53.4823 193.594 53.3748C193.706 53.2673 193.856 53.1597 194.081 53.0522C194.081 53.0522 194.231 52.9805 194.456 52.9088L195.655 52.4428C195.655 52.4428 195.655 52.2277 195.655 52.0843C195.655 51.69 195.618 51.4033 195.505 51.2599C195.43 51.1882 195.318 51.1165 195.168 51.1165C195.018 51.1165 194.868 51.1165 194.718 51.1882C194.568 51.2599 194.493 51.3316 194.418 51.4033C194.381 51.475 194.343 51.5825 194.306 51.7976C194.306 51.941 194.268 52.0127 194.231 52.0127C194.193 52.0843 194.081 52.1202 193.968 52.156C193.856 52.1919 193.743 52.2277 193.706 52.2636C193.519 52.3353 193.406 52.3711 193.294 52.3711C193.256 52.3711 193.219 52.2994 193.219 52.2277C193.219 52.0485 193.219 51.9051 193.331 51.7976C193.444 51.6183 193.631 51.4391 193.856 51.2957C194.081 51.1165 194.306 51.009 194.493 50.9373C194.755 50.8656 195.093 50.7939 195.505 50.7939C195.767 50.7939 195.992 50.8297 196.142 50.9373C196.33 51.0448 196.442 51.1523 196.517 51.3316C196.592 51.5108 196.63 51.8334 196.63 52.2636V53.0163V53.554V53.6974C196.63 53.6974 196.63 53.9125 196.667 53.9483C196.705 53.9842 196.742 54.02 196.817 54.02H196.892L197.042 53.805H197.117L197.154 53.8408ZM195.618 52.8013C195.618 52.8013 195.243 52.9447 195.018 53.088C194.793 53.2314 194.643 53.3748 194.531 53.4823C194.456 53.5899 194.418 53.6974 194.418 53.8408C194.418 53.9842 194.456 54.0917 194.531 54.1634C194.606 54.2351 194.718 54.3068 194.83 54.3068C195.018 54.3068 195.168 54.271 195.28 54.1634C195.43 54.02 195.543 53.9125 195.58 53.8408C195.58 53.7691 195.618 53.554 195.618 53.1956C195.618 53.0522 195.618 52.9446 195.618 52.8013Z" fill="#202020"/>
</g>
<defs>
<clipPath id="clip0_564_1614">
<rect width="206" height="68" fill="white"/>
</clipPath>
</defs>
</svg>
